<svg width="50" height="50" viewBox="0 0 50 50" fill="none" xmlns="http://www.w3.org/2000/svg">
<path d="M25 0C24.54 0 24.1667 0.373333 24.1667 0.833333V5.83333C24.1667 6.29333 24.54 6.66667 25 6.66667C25.46 6.66667 25.8333 6.29333 25.8333 5.83333V0.833333C25.8333 0.373333 25.46 0 25 0Z" fill="#F0C419"/>
<path d="M25 43.3333C24.54 43.3333 24.1667 43.7067 24.1667 44.1667V49.1667C24.1667 49.6267 24.54 50 25 50C25.46 50 25.8333 49.6267 25.8333 49.1667V44.1667C25.8333 43.7067 25.46 43.3333 25 43.3333Z" fill="#F0C419"/>
<path d="M49.1667 24.1667H44.1667C43.7067 24.1667 43.3333 24.54 43.3333 25C43.3333 25.46 43.7067 25.8333 44.1667 25.8333H49.1667C49.6267 25.8333 50 25.46 50 25C50 24.54 49.6267 24.1667 49.1667 24.1667Z" fill="#F0C419"/>
<path d="M6.66667 25C6.66667 24.54 6.29333 24.1667 5.83333 24.1667H0.833333C0.373333 24.1667 0 24.54 0 25C0 25.46 0.373333 25.8333 0.833333 25.8333H5.83333C6.29333 25.8333 6.66667 25.46 6.66667 25Z" fill="#F0C419"/>
<path d="M38.5533 12.28C38.7667 12.28 38.98 12.1983 39.1425 12.0358L43.9225 7.25584C44.2483 6.93 44.2483 6.40334 43.9225 6.0775C43.5967 5.75167 43.07 5.75167 42.7442 6.0775L37.9642 10.8575C37.6383 11.1833 37.6383 11.71 37.9642 12.0358C38.1267 12.1992 38.34 12.28 38.5533 12.28Z" fill="#F0C419"/>
<path d="M10.8575 37.9642L6.0775 42.7442C5.75167 43.07 5.75167 43.5967 6.0775 43.9225C6.24 44.085 6.45334 44.1667 6.66667 44.1667C6.88 44.1667 7.09334 44.085 7.25584 43.9225L12.0358 39.1425C12.3617 38.8167 12.3617 38.29 12.0358 37.9642C11.71 37.6383 11.1833 37.6383 10.8575 37.9642Z" fill="#F0C419"/>
<path d="M39.1425 37.9642C38.8167 37.6383 38.29 37.6383 37.9642 37.9642C37.6383 38.29 37.6383 38.8167 37.9642 39.1425L42.7442 43.9225C42.9067 44.085 43.12 44.1667 43.3333 44.1667C43.5467 44.1667 43.76 44.085 43.9225 43.9225C44.2483 43.5967 44.2483 43.07 43.9225 42.7442L39.1425 37.9642Z" fill="#F0C419"/>
<path d="M7.25584 6.0775C6.93 5.75167 6.40334 5.75167 6.0775 6.0775C5.75167 6.40334 5.75167 6.93 6.0775 7.25584L10.8575 12.0358C11.02 12.1983 11.2333 12.28 11.4467 12.28C11.66 12.28 11.8733 12.1983 12.0358 12.0358C12.3617 11.71 12.3617 11.1833 12.0358 10.8575L7.25584 6.0775Z" fill="#F0C419"/>
<path d="M41.8758 17.8367C42.0108 18.1542 42.3192 18.345 42.6433 18.345C42.7517 18.345 42.8625 18.3233 42.9683 18.2783L45.27 17.3017C45.6933 17.1217 45.8917 16.6325 45.7117 16.2092C45.5317 15.7858 45.0417 15.5875 44.6192 15.7675L42.3175 16.7442C41.8933 16.9242 41.6958 17.4133 41.8758 17.8367Z" fill="#F0C419"/>
<path d="M8.12417 32.1633C7.94417 31.74 7.455 31.5417 7.03167 31.7217L4.73 32.6983C4.30667 32.8783 4.10834 33.3675 4.28834 33.7908C4.42334 34.1083 4.73167 34.2992 5.05584 34.2992C5.16417 34.2992 5.275 34.2775 5.38084 34.2325L7.6825 33.2558C8.10667 33.0758 8.30417 32.5867 8.12417 32.1633Z" fill="#F0C419"/>
<path d="M45.4008 32.3442L43.0833 31.4067C42.6575 31.2342 42.1708 31.4408 41.9983 31.8675C41.8258 32.2942 42.0325 32.78 42.4592 32.9525L44.7775 33.8892C44.88 33.93 44.9858 33.95 45.0892 33.95C45.4192 33.95 45.7317 33.7533 45.8625 33.4283C46.0342 33.0025 45.8283 32.5167 45.4008 32.3442Z" fill="#F0C419"/>
<path d="M4.59917 17.6567L6.91667 18.5933C7.01917 18.6342 7.125 18.6542 7.22834 18.6542C7.55834 18.6542 7.87084 18.4575 8.00167 18.1325C8.17417 17.7058 7.9675 17.22 7.54084 17.0475L5.2225 16.1108C4.795 15.9383 4.31 16.1442 4.1375 16.5717C3.96584 16.9975 4.17167 17.4833 4.59917 17.6567Z" fill="#F0C419"/>
<path d="M33.2558 42.3175C33.0758 41.8942 32.5867 41.6967 32.1633 41.8758C31.74 42.0558 31.5417 42.545 31.7217 42.9683L32.6983 45.27C32.8333 45.5875 33.1417 45.7783 33.4658 45.7783C33.5742 45.7783 33.685 45.7567 33.7908 45.7117C34.2142 45.5317 34.4125 45.0425 34.2325 44.6192L33.2558 42.3175Z" fill="#F0C419"/>
<path d="M17.5117 8.19083C17.62 8.19083 17.7308 8.16917 17.8367 8.12417C18.26 7.94417 18.4583 7.455 18.2783 7.03167L17.3017 4.73C17.1225 4.30583 16.6333 4.1075 16.2092 4.28833C15.7858 4.46833 15.5875 4.9575 15.7675 5.38083L16.7442 7.6825C16.8783 8 17.1875 8.19083 17.5117 8.19083Z" fill="#F0C419"/>
<path d="M18.1325 41.9983C17.7067 41.8275 17.22 42.0317 17.0475 42.4592L16.1108 44.7775C15.9383 45.2042 16.145 45.69 16.5717 45.8625C16.6742 45.9033 16.78 45.9233 16.8833 45.9233C17.2133 45.9233 17.5258 45.7267 17.6567 45.4017L18.5933 43.0833C18.7658 42.6567 18.5592 42.1708 18.1325 41.9983Z" fill="#F0C419"/>
<path d="M32.1792 8.06251C32.5092 8.06251 32.8217 7.86584 32.9525 7.54084L33.8892 5.22251C34.0617 4.79584 33.855 4.31001 33.4283 4.13751C33.0025 3.96501 32.5158 4.17168 32.3433 4.59834L31.4067 6.91668C31.2342 7.34334 31.4408 7.82918 31.8675 8.00168C31.97 8.04251 32.0758 8.06251 32.1792 8.06251Z" fill="#F0C419"/>
<path d="M25 41.6667C34.2047 41.6667 41.6667 34.2048 41.6667 25C41.6667 15.7953 34.2047 8.33334 25 8.33334C15.7952 8.33334 8.33333 15.7953 8.33333 25C8.33333 34.2048 15.7952 41.6667 25 41.6667Z" fill="#F0C419"/>
<path d="M25 37.5C31.9036 37.5 37.5 31.9036 37.5 25C37.5 18.0964 31.9036 12.5 25 12.5C18.0964 12.5 12.5 18.0964 12.5 25C12.5 31.9036 18.0964 37.5 25 37.5Z" fill="#EDE21B"/>
</svg>
