<svg width="50" height="50" viewBox="0 0 50 50" fill="none" xmlns="http://www.w3.org/2000/svg">
<g clip-path="url(#clip0)">
<path d="M34.1808 14.7255C31.7951 14.7255 29.8543 12.7844 29.8543 10.3988C29.8543 10.2486 29.7326 10.1269 29.5824 10.1269C29.4322 10.1269 29.3105 10.2486 29.3105 10.3988C29.3105 12.7846 27.3695 14.7255 24.9839 14.7255C24.8337 14.7255 24.712 14.8471 24.712 14.9973C24.712 15.1475 24.8337 15.2692 24.9839 15.2692C27.3696 15.2692 29.3105 17.2102 29.3105 19.5958C29.3105 19.7459 29.4322 19.8676 29.5824 19.8676C29.7326 19.8676 29.8543 19.7459 29.8543 19.5958C29.8543 17.21 31.7953 15.2692 34.1808 15.2692C34.331 15.2692 34.4527 15.1475 34.4527 14.9973C34.4528 14.8471 34.3309 14.7255 34.1808 14.7255Z" fill="#F29F26"/>
<path d="M29.0939 14.9972C29.7856 14.393 30.285 13.5741 30.4835 12.6438C30.0844 11.9889 29.8541 11.2202 29.8541 10.3986C29.8541 10.2484 29.7324 10.1267 29.5823 10.1267C29.4321 10.1267 29.3104 10.2484 29.3104 10.3986C29.3104 11.9364 28.5032 13.2885 27.2909 14.0559C27.1271 14.1595 26.9558 14.2525 26.7782 14.334C26.7716 14.3369 26.7651 14.3398 26.7586 14.3428C26.5846 14.4216 26.4045 14.489 26.2193 14.5445C26.2065 14.5483 26.1935 14.5518 26.1807 14.5554C26.1022 14.5782 26.0227 14.5985 25.9423 14.6168C25.9262 14.6205 25.9102 14.6245 25.8942 14.628C25.8039 14.6474 25.7127 14.6642 25.6205 14.6779C25.6046 14.6801 25.5886 14.6818 25.5727 14.684C25.4968 14.6944 25.4201 14.7027 25.343 14.709C25.3165 14.7111 25.2901 14.7134 25.2635 14.715C25.1744 14.7208 25.0847 14.7246 24.9942 14.7248C24.9907 14.7248 24.9872 14.725 24.9837 14.725C24.8335 14.725 24.7119 14.8467 24.7119 14.9968C24.7119 15.147 24.8335 15.2687 24.9837 15.2687C24.9872 15.2687 24.9907 15.2689 24.9942 15.2689C25.0847 15.2691 25.1743 15.2729 25.2635 15.2787C25.2901 15.2804 25.3166 15.2826 25.343 15.2847C25.4202 15.2912 25.4968 15.2994 25.5727 15.3097C25.5886 15.3119 25.6046 15.3135 25.6205 15.3158C25.7127 15.3295 25.8039 15.3463 25.8942 15.3657C25.9104 15.3692 25.9263 15.3732 25.9423 15.3769C26.0226 15.3952 26.102 15.4155 26.1805 15.4383C26.1935 15.442 26.2066 15.4455 26.2195 15.4494C26.4047 15.5049 26.5847 15.5723 26.7587 15.651C26.7653 15.654 26.7718 15.6569 26.7783 15.6598C26.9559 15.7413 27.1272 15.8341 27.2909 15.9379C28.5033 16.7054 29.3105 18.0574 29.3105 19.5952C29.3105 19.7454 29.4322 19.8671 29.5824 19.8671C29.7325 19.8671 29.8542 19.7454 29.8542 19.5952C29.8542 18.7736 30.0845 18.0049 30.4836 17.35C30.2851 16.4205 29.7857 15.6014 29.0939 14.9972Z" fill="#EF8229"/>
<path d="M37.2988 26.1863C38.3131 26.1863 39.1354 25.364 39.1354 24.3496C39.1354 23.3353 38.3131 22.513 37.2988 22.513C36.2844 22.513 35.4622 23.3353 35.4622 24.3496C35.4622 25.364 36.2844 26.1863 37.2988 26.1863Z" fill="#F29F26"/>
<path d="M4.01905 47.5036C5.03339 47.5036 5.85567 46.6813 5.85567 45.667C5.85567 44.6527 5.03339 43.8304 4.01905 43.8304C3.00472 43.8304 2.18243 44.6527 2.18243 45.667C2.18243 46.6813 3.00472 47.5036 4.01905 47.5036Z" fill="#F29F26"/>
<path d="M28.5293 35.9553C20.1506 33.1838 14.0883 25.2773 14.0883 15.9817C14.0883 11.3286 15.5783 6.91833 18.3968 3.22849C18.7657 2.74558 18.7584 2.0739 18.3794 1.5989C18.0004 1.124 17.3467 0.967851 16.7943 1.22098C12.5024 3.18386 8.86326 6.31325 6.27039 10.2704C3.60858 14.3327 2.20184 19.0575 2.20184 23.9342C2.20184 37.6998 13.401 48.899 27.1667 48.899C32.0435 48.899 36.7683 47.4921 40.8306 44.8305C44.7877 42.2376 47.917 38.5984 49.88 34.3065C50.1327 33.7538 49.9769 33.1003 49.5021 32.7212C49.0272 32.3423 48.3553 32.3351 47.8725 32.7038C44.1826 35.5226 39.7726 37.0124 35.1193 37.0124C33.8321 37.0124 32.5713 36.8961 31.3471 36.6737" fill="#EDE21B"/>
<path d="M43.1119 42.5609C39.0495 45.2226 34.3248 46.6294 29.448 46.6294C15.6824 46.6294 4.48317 35.4302 4.48317 21.6646C4.48317 16.7879 5.89 12.063 8.55172 8.00078C9.21451 6.98926 9.94595 6.03233 10.7388 5.13467C9.03306 6.62627 7.52818 8.35059 6.27018 10.2706C3.60837 14.3329 2.20163 19.0577 2.20163 23.9345C2.20163 37.7001 13.4008 48.8993 27.1664 48.8993C32.0433 48.8993 36.7681 47.4923 40.8304 44.8307C42.7141 43.5963 44.4098 42.1246 45.8817 40.4585C45.012 41.2188 44.0872 41.9218 43.1119 42.5609Z" fill="#EAC71C"/>
<path d="M29.5822 26.5315C30.1847 26.5315 30.6731 26.0431 30.6731 25.4406C30.6731 24.8381 30.1847 24.3497 29.5822 24.3497C28.9797 24.3497 28.4912 24.8381 28.4912 25.4406C28.4912 26.0431 28.9797 26.5315 29.5822 26.5315Z" fill="#EDE21B"/>
<path d="M1.09092 39.6297C1.69341 39.6297 2.18183 39.1413 2.18183 38.5388C2.18183 37.9363 1.69341 37.4479 1.09092 37.4479C0.48842 37.4479 0 37.9363 0 38.5388C0 39.1413 0.48842 39.6297 1.09092 39.6297Z" fill="#EDE21B"/>
<path d="M36.5777 9.67109C37.1802 9.67109 37.6686 9.18267 37.6686 8.58017C37.6686 7.97768 37.1802 7.48926 36.5777 7.48926C35.9752 7.48926 35.4868 7.97768 35.4868 8.58017C35.4868 9.18267 35.9752 9.67109 36.5777 9.67109Z" fill="#EDE21B"/>
</g>
<defs>
<clipPath id="clip0">
<rect width="50" height="50" fill="white"/>
</clipPath>
</defs>
</svg>
