<svg width="393" height="236" viewBox="0 0 393 236" fill="none" xmlns="http://www.w3.org/2000/svg">
<path d="M226.656 43.75H207.906C207.699 43.75 207.5 43.6677 207.354 43.5212C207.207 43.3747 207.125 43.176 207.125 42.9688V7.8125H244.625V14.8438C244.625 15.051 244.707 15.2497 244.854 15.3962C245 15.5427 245.199 15.625 245.406 15.625C245.613 15.625 245.812 15.5427 245.959 15.3962C246.105 15.2497 246.188 15.051 246.188 14.8438V3.90625C246.188 3.28465 245.941 2.68851 245.501 2.24897C245.061 1.80943 244.465 1.5625 243.844 1.5625H207.906C207.285 1.5625 206.689 1.80943 206.249 2.24897C205.809 2.68851 205.562 3.28465 205.562 3.90625V42.9688C205.562 43.5904 205.809 44.1865 206.249 44.626C206.689 45.0656 207.285 45.3125 207.906 45.3125H226.656C226.863 45.3125 227.062 45.2302 227.209 45.0837C227.355 44.9372 227.438 44.7385 227.438 44.5312C227.438 44.324 227.355 44.1253 227.209 43.9788C227.062 43.8323 226.863 43.75 226.656 43.75ZM207.906 3.125H243.844C244.051 3.125 244.25 3.20731 244.396 3.35382C244.543 3.50034 244.625 3.69905 244.625 3.90625V6.25H207.125V3.90625C207.125 3.69905 207.207 3.50034 207.354 3.35382C207.5 3.20731 207.699 3.125 207.906 3.125V3.125Z" fill="#5A677D"/>
<path d="M208.688 3.90625H210.25V5.46875H208.688V3.90625Z" fill="#5A677D"/>
<path d="M211.812 3.90625H213.375V5.46875H211.812V3.90625Z" fill="#5A677D"/>
<path d="M214.938 3.90625H216.5V5.46875H214.938V3.90625Z" fill="#5A677D"/>
<path d="M210.25 11.7188V39.8438C210.25 40.051 210.332 40.2497 210.479 40.3962C210.625 40.5427 210.824 40.625 211.031 40.625C211.238 40.625 211.437 40.5427 211.584 40.3962C211.73 40.2497 211.812 40.051 211.812 39.8438V11.7188C211.812 11.5115 211.73 11.3128 211.584 11.1663C211.437 11.0198 211.238 10.9375 211.031 10.9375C210.824 10.9375 210.625 11.0198 210.479 11.1663C210.332 11.3128 210.25 11.5115 210.25 11.7188Z" fill="#5A677D"/>
<path d="M217.15 12.0664C217.093 11.981 217.02 11.9077 216.935 11.8507C216.849 11.7936 216.754 11.7539 216.653 11.7338C216.552 11.7137 216.449 11.7136 216.348 11.7335C216.248 11.7535 216.152 11.7931 216.066 11.85L213.723 13.4125C213.616 13.4839 213.528 13.5805 213.467 13.6939C213.407 13.8073 213.375 13.9339 213.375 14.0625C213.375 14.1911 213.407 14.3177 213.467 14.4311C213.528 14.5445 213.616 14.6412 213.723 14.7125L216.066 16.275C216.152 16.332 216.248 16.3715 216.348 16.3915C216.449 16.4114 216.552 16.4113 216.653 16.3912C216.754 16.3711 216.849 16.3314 216.935 16.2743C217.02 16.2173 217.093 16.144 217.15 16.0586C217.207 15.9733 217.247 15.8775 217.266 15.7769C217.286 15.6762 217.286 15.5726 217.266 15.472C217.246 15.3714 217.206 15.2757 217.149 15.1904C217.092 15.1052 217.019 15.032 216.934 14.975L215.563 14.0625L216.931 13.15C217.017 13.0933 217.09 13.0202 217.148 12.935C217.205 12.8498 217.245 12.7542 217.265 12.6536C217.286 12.5529 217.286 12.4493 217.266 12.3485C217.246 12.2478 217.207 12.1519 217.15 12.0664V12.0664Z" fill="#5A677D"/>
<path d="M223.184 16.275L225.527 14.7125C225.634 14.6411 225.722 14.5445 225.783 14.4311C225.843 14.3177 225.875 14.1911 225.875 14.0625C225.875 13.9339 225.843 13.8073 225.783 13.6939C225.722 13.5805 225.634 13.4838 225.527 13.4125L223.184 11.85C223.011 11.735 222.8 11.6932 222.597 11.7338C222.394 11.7743 222.215 11.894 222.1 12.0664C221.985 12.2388 221.943 12.4498 221.984 12.653C222.024 12.8562 222.144 13.035 222.316 13.15L223.688 14.0625L222.319 14.975C222.233 15.0319 222.16 15.1051 222.103 15.1904C222.046 15.2757 222.006 15.3713 221.986 15.472C221.966 15.5726 221.966 15.6762 221.986 15.7768C222.006 15.8775 222.045 15.9732 222.102 16.0586C222.159 16.1439 222.232 16.2172 222.318 16.2743C222.403 16.3314 222.499 16.3711 222.599 16.3912C222.7 16.4113 222.804 16.4114 222.904 16.3914C223.005 16.3715 223.101 16.3319 223.186 16.275H223.184Z" fill="#5A677D"/>
<path d="M218.844 17.1875C219.008 17.1875 219.168 17.1359 219.301 17.04C219.434 16.9441 219.533 16.8088 219.585 16.6531L221.148 11.9656C221.18 11.8682 221.193 11.7653 221.186 11.6628C221.178 11.5604 221.151 11.4604 221.105 11.3685C221.059 11.2767 220.995 11.1948 220.918 11.1275C220.84 11.0603 220.75 11.009 220.652 10.9766C220.555 10.9441 220.452 10.9312 220.35 10.9386C220.247 10.9459 220.147 10.9734 220.055 11.0194C219.87 11.1123 219.729 11.275 219.663 11.4719L218.101 16.1594C218.062 16.2769 218.051 16.4021 218.07 16.5246C218.089 16.6471 218.136 16.7634 218.209 16.8638C218.281 16.9643 218.377 17.046 218.487 17.1023C218.598 17.1586 218.72 17.1878 218.844 17.1875V17.1875Z" fill="#5A677D"/>
<path d="M213.375 19.5312H216.5V21.0938H213.375V19.5312Z" fill="#5A677D"/>
<path d="M218.062 19.5312H222.75V21.0938H218.062V19.5312Z" fill="#5A677D"/>
<path d="M216.5 22.6562H227.438V24.2188H216.5V22.6562Z" fill="#5A677D"/>
<path d="M216.5 25.7812H218.062V27.3438H216.5V25.7812Z" fill="#5A677D"/>
<path d="M219.625 25.7812H227.438V27.3438H219.625V25.7812Z" fill="#5A677D"/>
<path d="M213.375 28.9062H216.5V30.4688H213.375V28.9062Z" fill="#5A677D"/>
<path d="M218.062 28.9062H222.75V30.4688H218.062V28.9062Z" fill="#5A677D"/>
<path d="M216.5 32.0312H227.438V33.5938H216.5V32.0312Z" fill="#5A677D"/>
<path d="M216.5 35.1562H224.312V36.7188H216.5V35.1562Z" fill="#5A677D"/>
<path d="M213.375 38.2812H216.5V39.8438H213.375V38.2812Z" fill="#5A677D"/>
<path d="M218.062 38.2812H222.75V39.8438H218.062V38.2812Z" fill="#5A677D"/>
<path d="M251.656 17.1875H232.906C232.699 17.1875 232.5 17.2698 232.354 17.4163C232.207 17.5628 232.125 17.7615 232.125 17.9688V20.3125H229.781C229.574 20.3125 229.375 20.3948 229.229 20.5413C229.082 20.6878 229 20.8865 229 21.0938V47.6562C229 47.8635 229.082 48.0622 229.229 48.2087C229.375 48.3552 229.574 48.4375 229.781 48.4375H248.531C248.738 48.4375 248.937 48.3552 249.084 48.2087C249.23 48.0622 249.312 47.8635 249.312 47.6562V45.3125H251.656C251.863 45.3125 252.062 45.2302 252.209 45.0837C252.355 44.9372 252.438 44.7385 252.438 44.5312V17.9688C252.438 17.7615 252.355 17.5628 252.209 17.4163C252.062 17.2698 251.863 17.1875 251.656 17.1875ZM247.75 46.875H230.562V21.875H243.062V25.7812C243.062 25.9885 243.145 26.1872 243.291 26.3337C243.438 26.4802 243.637 26.5625 243.844 26.5625H247.75V46.875ZM246.645 25H244.625V22.9797L246.645 25ZM250.875 43.75H249.312V25.7812C249.312 25.5742 249.229 25.3758 249.084 25.2289L244.396 20.5414C244.249 20.3955 244.051 20.3133 243.844 20.3125H233.688V18.75H250.875V43.75Z" fill="#5A677D"/>
<path d="M225.875 35.1562H227.438V36.7188H225.875V35.1562Z" fill="#5A677D"/>
<path d="M232.125 25H235.25V26.5625H232.125V25Z" fill="#5A677D"/>
<path d="M236.812 25H241.5V26.5625H236.812V25Z" fill="#5A677D"/>
<path d="M235.25 28.125H246.188V29.6875H235.25V28.125Z" fill="#5A677D"/>
<path d="M235.25 31.25H236.812V32.8125H235.25V31.25Z" fill="#5A677D"/>
<path d="M238.375 31.25H246.188V32.8125H238.375V31.25Z" fill="#5A677D"/>
<path d="M232.125 34.375H235.25V35.9375H232.125V34.375Z" fill="#5A677D"/>
<path d="M236.812 34.375H241.5V35.9375H236.812V34.375Z" fill="#5A677D"/>
<path d="M235.25 37.5H246.188V39.0625H235.25V37.5Z" fill="#5A677D"/>
<path d="M235.25 40.625H243.062V42.1875H235.25V40.625Z" fill="#5A677D"/>
<path d="M232.125 43.75H235.25V45.3125H232.125V43.75Z" fill="#5A677D"/>
<path d="M236.812 43.75H241.5V45.3125H236.812V43.75Z" fill="#5A677D"/>
<path d="M244.625 40.625H246.188V42.1875H244.625V40.625Z" fill="#5A677D"/>
<g clip-path="url(#clip0)">
<path d="M253.023 141.166H245.016V139.099C245.016 138.56 244.578 138.122 244.039 138.122H222.945C222.406 138.122 221.969 138.56 221.969 139.099C221.969 139.638 222.406 140.075 222.945 140.075H243.062V147.562C243.062 154.139 239.551 160.252 233.881 163.578H215.135C209.465 160.252 205.953 154.139 205.953 147.563V140.076H212.496C213.035 140.076 213.473 139.638 213.473 139.099C213.473 138.56 213.035 138.122 212.496 138.122H204.977C204.437 138.122 204 138.56 204 139.099V147.563C204 151.254 204.992 154.873 206.869 158.03C208.135 160.158 209.778 162.038 211.701 163.578H204.977C204.437 163.578 204 164.015 204 164.555C204 168.109 206.891 171 210.445 171H240.914C244.468 171 247.359 168.109 247.359 164.555C247.359 164.015 246.922 163.578 246.383 163.578H237.314C239.085 162.161 240.616 160.455 241.836 158.533H244.592C249.78 158.533 254 154.312 254 149.125V142.143C254 141.603 253.563 141.166 253.023 141.166ZM245.299 165.531C244.852 167.54 243.056 169.047 240.914 169.047H210.445C208.304 169.047 206.507 167.54 206.06 165.531H214.873H234.143H245.299ZM245.016 147.563V147.025H248.141V149.125C248.141 151.081 246.549 152.673 244.592 152.673H244.371C244.797 151.012 245.016 149.295 245.016 147.563ZM252.047 149.125C252.047 153.235 248.703 156.579 244.592 156.579H242.93C243.242 155.943 243.521 155.291 243.764 154.626H244.592C247.626 154.626 250.094 152.158 250.094 149.125V146.049C250.094 145.509 249.656 145.072 249.117 145.072H245.016V143.119H252.047V149.125Z" fill="#5A677D"/>
<path d="M225.44 126.405L224.932 125.767C224.186 124.83 224.185 123.521 224.93 122.584C225.265 122.161 225.194 121.547 224.772 121.212C224.349 120.876 223.735 120.947 223.4 121.37C222.087 123.023 222.089 125.332 223.404 126.983L223.913 127.621C224.887 128.845 224.889 130.556 223.916 131.781L223.395 132.437C223.06 132.86 223.131 133.474 223.553 133.809C223.733 133.952 223.947 134.021 224.16 134.021C224.447 134.021 224.732 133.894 224.925 133.651L225.446 132.995C226.987 131.054 226.985 128.343 225.44 126.405Z" fill="#5A677D"/>
<path d="M230.853 128.6L230.345 127.962C229.599 127.026 229.598 125.717 230.343 124.779C230.678 124.357 230.607 123.743 230.185 123.407C229.762 123.072 229.148 123.143 228.813 123.565C227.5 125.219 227.502 127.528 228.817 129.179L229.326 129.817C230.3 131.041 230.302 132.752 229.329 133.977L228.808 134.633C228.473 135.055 228.544 135.67 228.966 136.005C229.146 136.147 229.36 136.216 229.573 136.216C229.86 136.216 230.146 136.09 230.338 135.847L230.859 135.191C232.4 133.249 232.398 130.539 230.853 128.6Z" fill="#5A677D"/>
<path d="M220.027 128.6L219.519 127.962C218.773 127.026 218.772 125.717 219.516 124.779C219.852 124.357 219.781 123.743 219.359 123.407C218.936 123.072 218.322 123.143 217.987 123.565C216.674 125.219 216.676 127.528 217.991 129.179L218.5 129.817C219.474 131.041 219.476 132.752 218.503 133.977L217.982 134.633C217.647 135.055 217.718 135.67 218.14 136.005C218.32 136.147 218.534 136.217 218.747 136.217C219.034 136.217 219.319 136.09 219.512 135.847L220.033 135.191C221.574 133.25 221.572 130.539 220.027 128.6Z" fill="#5A677D"/>
<path d="M218.676 138.408C218.494 138.227 218.242 138.122 217.985 138.122C217.729 138.122 217.477 138.227 217.295 138.408C217.113 138.591 217.009 138.842 217.009 139.099C217.009 139.355 217.113 139.607 217.295 139.79C217.477 139.972 217.729 140.075 217.985 140.075C218.242 140.075 218.494 139.972 218.676 139.79C218.858 139.607 218.962 139.356 218.962 139.099C218.962 138.842 218.858 138.59 218.676 138.408Z" fill="#5A677D"/>
<path d="M239.352 146.586C238.812 146.586 238.375 147.023 238.375 147.562C238.375 151.187 236.905 154.75 234.341 157.336C233.961 157.719 233.964 158.338 234.347 158.717C234.538 158.906 234.786 159 235.035 159C235.286 159 235.537 158.904 235.728 158.711C238.652 155.762 240.328 151.698 240.328 147.562C240.328 147.023 239.891 146.586 239.352 146.586Z" fill="#5A677D"/>
<path d="M232.7 159.987C232.435 159.517 231.839 159.351 231.369 159.616L231.347 159.629C230.877 159.894 230.711 160.489 230.976 160.959C231.156 161.277 231.487 161.456 231.828 161.456C231.99 161.456 232.155 161.415 232.307 161.33L232.329 161.317C232.799 161.052 232.965 160.457 232.7 159.987Z" fill="#5A677D"/>
</g>
<g clip-path="url(#clip1)">
<path d="M111.356 0H70.6421C69.6669 0 68.9352 0.825262 69.0213 1.80041L72.74 43.473C72.8261 44.4474 73.6689 45.4673 74.6142 45.7306L89.2739 49.8028C90.2179 50.0644 91.7609 50.0661 92.7063 49.8062L107.384 45.7398C108.33 45.4772 109.172 44.4666 109.259 43.4905L112.979 1.80041C113.065 0.825262 112.336 0 111.356 0ZM104.295 15.0426C104.295 15.049 104.29 15.054 104.283 15.0551C104.277 15.0561 104.271 15.0528 104.268 15.0469L92.7825 19.7536C92.6189 19.8206 92.5257 19.9941 92.5597 20.1676C92.5939 20.341 92.746 20.4662 92.9228 20.4662H101.857C102.332 20.4662 102.785 20.668 103.102 21.0214C103.42 21.3748 103.573 21.8466 103.522 22.3191L102.127 35.4137C102.058 36.0562 101.626 36.602 101.017 36.8164L91.5343 40.153C91.1771 40.2787 90.7878 40.2797 90.4298 40.1556L80.9915 36.8862C80.3783 36.6738 79.943 36.1264 79.8741 35.4811L79.2413 29.5507C79.208 29.2394 79.3086 28.9286 79.5179 28.6958C79.7273 28.463 80.0255 28.33 80.3387 28.33H82.9651C83.5295 28.33 84.0028 28.7557 84.0625 29.3167L84.4508 32.962L90.9858 35.2336L97.5508 32.9412L98.3538 25.3812H79.7917C79.2291 25.3812 78.7565 24.9579 78.6947 24.3986L78.3413 21.1944C78.2874 20.7057 78.5631 20.2403 79.0176 20.0531L90.8974 15.1551C91.0322 15.0996 91.1088 14.9567 91.0806 14.8137C91.0522 14.6708 90.927 14.5679 90.7813 14.5679H78.2735C77.8969 14.5679 77.5811 14.2836 77.5418 13.9092L77.18 10.4653C77.1582 10.258 77.2254 10.0512 77.3649 9.89625C77.5044 9.74137 77.7031 9.65288 77.9115 9.65288H104.083C104.293 9.65288 104.492 9.74232 104.632 9.89858C104.771 10.0549 104.838 10.2634 104.814 10.4716L104.295 15.0426Z" fill="#5A677D"/>
</g>
<path d="M113.595 128.736C112.542 124.836 104.706 121 91 121C77.2936 121 69.4573 124.836 68.4055 128.736C68.3291 128.87 68.2727 129.016 68.2727 129.182V129.636V140.091V140.545V141V151V151.455V151.909V162.818C68.2727 162.965 68.3118 163.105 68.3791 163.228C69.4527 167.678 79.0582 171 91 171C102.915 171 112.505 167.692 113.614 163.258C113.686 163.128 113.727 162.978 113.727 162.818V151.909V151.455V151V141V140.545V140.091V129.636V129.182C113.727 129.016 113.671 128.87 113.595 128.736ZM111.837 151.895C111.812 152.005 111.776 152.115 111.732 152.225C111.695 152.315 111.651 152.405 111.602 152.495C111.541 152.607 111.473 152.719 111.392 152.831C111.332 152.915 111.264 152.999 111.193 153.083C111.092 153.202 110.985 153.321 110.863 153.439C110.789 153.511 110.708 153.582 110.626 153.654C110.477 153.784 110.322 153.913 110.148 154.041C110.074 154.096 109.994 154.15 109.915 154.205C109.709 154.346 109.495 154.487 109.259 154.625C109.197 154.663 109.131 154.698 109.066 154.735C108.795 154.887 108.513 155.039 108.207 155.186C108.168 155.205 108.127 155.224 108.087 155.242C107.746 155.403 107.39 155.561 107.009 155.714C106.998 155.718 106.987 155.722 106.976 155.726C104.912 156.551 102.271 157.245 99.1936 157.699C99.1782 157.701 99.1627 157.703 99.1473 157.705C98.5491 157.794 97.9355 157.872 97.3055 157.941C97.2027 157.952 97.0945 157.959 96.9909 157.97C96.4409 158.027 95.8845 158.08 95.3118 158.122C95.05 158.141 94.7755 158.15 94.5091 158.166C94.0782 158.192 93.6518 158.22 93.21 158.235C92.4882 158.258 91.7518 158.273 91 158.273C90.2482 158.273 89.5118 158.258 88.7891 158.233C88.3473 158.217 87.9209 158.188 87.49 158.164C87.2236 158.148 86.9491 158.138 86.6873 158.119C86.1145 158.077 85.5582 158.025 85.0082 157.967C84.9045 157.956 84.7964 157.949 84.6936 157.938C84.0636 157.869 83.45 157.79 82.8518 157.703C82.8364 157.701 82.8209 157.699 82.8055 157.696C79.7282 157.242 77.0873 156.548 75.0227 155.724C75.0118 155.72 75.0009 155.715 74.99 155.711C74.6091 155.558 74.2518 155.4 73.9118 155.239C73.8727 155.22 73.8309 155.202 73.7918 155.184C73.4864 155.036 73.2036 154.885 72.9327 154.732C72.8691 154.695 72.8018 154.66 72.74 154.623C72.5045 154.485 72.29 154.344 72.0845 154.202C72.0064 154.147 71.9255 154.094 71.8509 154.038C71.6773 153.91 71.5218 153.781 71.3727 153.651C71.2918 153.58 71.21 153.509 71.1364 153.436C71.0145 153.318 70.9073 153.2 70.8064 153.08C70.7355 152.996 70.6673 152.913 70.6073 152.828C70.5273 152.716 70.4591 152.605 70.3973 152.493C70.3482 152.403 70.3045 152.313 70.2673 152.223C70.2227 152.113 70.1873 152.003 70.1618 151.893C70.1282 151.748 70.0909 151.601 70.0909 151.455C70.0909 151.352 70.1027 151.249 70.1191 151.147C70.1418 151.01 70.1291 150.873 70.0909 150.743V143.994C70.1164 144.017 70.1482 144.04 70.1745 144.064C70.3727 144.238 70.5745 144.412 70.8018 144.579C74.2264 147.169 81.0745 149.182 91 149.182C100.884 149.182 107.715 147.185 111.154 144.611C111.428 144.411 111.675 144.205 111.908 143.995L111.909 143.994V150.743C111.871 150.873 111.858 151.01 111.881 151.147C111.898 151.249 111.909 151.352 111.909 151.455C111.909 151.601 111.872 151.748 111.837 151.895ZM111.909 133.085V139.834C111.871 139.964 111.858 140.101 111.881 140.238C111.898 140.34 111.909 140.443 111.909 140.545C111.909 140.692 111.872 140.839 111.837 140.986C111.812 141.096 111.776 141.205 111.732 141.316C111.695 141.406 111.651 141.496 111.602 141.586C111.541 141.698 111.473 141.81 111.392 141.922C111.332 142.006 111.264 142.09 111.193 142.174C111.092 142.293 110.985 142.412 110.863 142.53C110.789 142.602 110.708 142.673 110.626 142.745C110.477 142.875 110.322 143.004 110.148 143.132C110.074 143.187 109.994 143.241 109.915 143.295C109.709 143.437 109.495 143.578 109.259 143.716C109.197 143.754 109.131 143.789 109.066 143.825C108.795 143.978 108.513 144.13 108.207 144.277C108.168 144.296 108.127 144.315 108.087 144.333C107.746 144.494 107.39 144.652 107.009 144.805C106.998 144.809 106.987 144.813 106.976 144.817C104.912 145.642 102.271 146.335 99.1936 146.79C99.1782 146.792 99.1627 146.794 99.1473 146.796C98.5491 146.885 97.9355 146.963 97.3055 147.032C97.2027 147.043 97.0945 147.05 96.9909 147.061C96.4409 147.118 95.8845 147.171 95.3118 147.213C95.05 147.232 94.7755 147.241 94.5091 147.257C94.0782 147.283 93.6518 147.311 93.21 147.326C92.4882 147.349 91.7518 147.364 91 147.364C90.2482 147.364 89.5118 147.349 88.7891 147.324C88.3473 147.308 87.9209 147.279 87.49 147.255C87.2236 147.239 86.9491 147.229 86.6873 147.21C86.1145 147.168 85.5582 147.115 85.0082 147.058C84.9045 147.047 84.7964 147.04 84.6936 147.029C84.0636 146.96 83.45 146.881 82.8518 146.794C82.8364 146.792 82.8209 146.79 82.8055 146.787C79.7282 146.333 77.0873 145.639 75.0227 144.815C75.0118 144.811 75.0009 144.806 74.99 144.802C74.6091 144.649 74.2518 144.491 73.9118 144.33C73.8727 144.311 73.8309 144.293 73.7918 144.275C73.4864 144.127 73.2036 143.976 72.9327 143.823C72.8691 143.786 72.8018 143.751 72.74 143.714C72.5045 143.575 72.29 143.435 72.0845 143.293C72.0064 143.238 71.9255 143.185 71.8509 143.129C71.6773 143.001 71.5218 142.872 71.3727 142.742C71.2918 142.671 71.21 142.6 71.1364 142.527C71.0145 142.409 70.9073 142.291 70.8064 142.171C70.7355 142.087 70.6673 142.004 70.6073 141.919C70.5273 141.807 70.4591 141.695 70.3973 141.584C70.3482 141.494 70.3045 141.404 70.2673 141.314C70.2227 141.204 70.1873 141.094 70.1618 140.984C70.1282 140.839 70.0909 140.692 70.0909 140.545C70.0909 140.443 70.1027 140.34 70.1191 140.238C70.1418 140.101 70.1291 139.964 70.0909 139.834V133.085C70.2 133.184 70.3245 133.281 70.4427 133.379C70.5082 133.434 70.5691 133.488 70.6382 133.543C70.9109 133.757 71.2055 133.969 71.5245 134.175C71.5909 134.218 71.6655 134.26 71.7345 134.303C72.0018 134.469 72.2845 134.632 72.5818 134.792C72.6918 134.851 72.8018 134.909 72.9155 134.967C73.2473 135.136 73.5955 135.301 73.9618 135.46C74.0218 135.486 74.0764 135.514 74.1373 135.539C74.5636 135.72 75.0164 135.893 75.4873 136.06C75.6173 136.106 75.7536 136.15 75.8873 136.195C76.2618 136.322 76.6491 136.443 77.05 136.56C77.1945 136.602 77.3364 136.645 77.4845 136.685C78.0164 136.833 78.5655 136.973 79.1418 137.102C79.2209 137.12 79.3064 137.135 79.3864 137.152C79.8945 137.263 80.4218 137.365 80.9636 137.462C81.1473 137.495 81.3336 137.525 81.5209 137.556C82.0364 137.641 82.5673 137.718 83.1118 137.789C83.2518 137.807 83.3855 137.828 83.5273 137.845C84.2036 137.927 84.9036 137.997 85.6227 138.057C85.8 138.072 85.9845 138.083 86.1645 138.095C86.74 138.137 87.3282 138.172 87.93 138.199C88.1491 138.209 88.3673 138.219 88.5909 138.227C89.3745 138.254 90.1727 138.273 91 138.273C91.8273 138.273 92.6255 138.254 93.4091 138.227C93.6318 138.219 93.85 138.209 94.07 138.199C94.6718 138.172 95.26 138.137 95.8355 138.095C96.0155 138.082 96.1991 138.072 96.3773 138.057C97.0964 137.998 97.7964 137.927 98.4727 137.845C98.6145 137.828 98.7482 137.807 98.8882 137.789C99.4327 137.718 99.9627 137.641 100.479 137.556C100.666 137.525 100.853 137.495 101.036 137.462C101.578 137.365 102.105 137.263 102.614 137.152C102.694 137.135 102.779 137.119 102.858 137.102C103.435 136.973 103.984 136.832 104.515 136.685C104.664 136.645 104.805 136.602 104.95 136.56C105.351 136.443 105.738 136.322 106.113 136.195C106.246 136.15 106.383 136.106 106.513 136.06C106.984 135.893 107.437 135.72 107.863 135.539C107.924 135.514 107.978 135.486 108.038 135.46C108.405 135.3 108.753 135.136 109.085 134.967C109.198 134.909 109.309 134.851 109.418 134.792C109.715 134.633 109.998 134.47 110.265 134.303C110.335 134.26 110.409 134.218 110.475 134.175C110.795 133.969 111.089 133.758 111.362 133.543C111.43 133.488 111.491 133.434 111.557 133.379C111.675 133.281 111.8 133.184 111.909 133.085ZM91 122.818C103.323 122.818 111.909 126.411 111.909 129.636C111.909 132.862 103.323 136.455 91 136.455C78.6773 136.455 70.0909 132.862 70.0909 129.636C70.0909 126.411 78.6773 122.818 91 122.818ZM111.909 162.548C111.896 162.588 111.887 162.629 111.88 162.671C111.365 165.815 102.851 169.182 91 169.182C79.1491 169.182 70.6355 165.815 70.12 162.671C70.1127 162.63 70.1027 162.59 70.0909 162.552V154.903C70.1164 154.926 70.1482 154.949 70.1745 154.973C70.3727 155.147 70.5745 155.321 70.8018 155.488C74.2264 158.078 81.0745 160.091 91 160.091C100.884 160.091 107.715 158.095 111.154 155.52C111.428 155.32 111.675 155.114 111.908 154.904L111.909 154.903V162.548V162.548Z" fill="#5A677D"/>
<path d="M181.646 68.0628C179.411 64.2324 176.378 61.1999 172.548 58.9646C168.718 56.7291 164.536 55.6117 160 55.6117C155.464 55.6117 151.281 56.7295 147.451 58.9646C143.621 61.1998 140.588 64.2324 138.353 68.0628C136.118 71.893 135 76.0757 135 80.6106C135 86.0581 136.589 90.9567 139.769 95.3075C142.948 99.6587 147.055 102.669 152.089 104.34C152.675 104.449 153.109 104.373 153.391 104.113C153.673 103.853 153.814 103.527 153.814 103.137C153.814 103.072 153.809 102.486 153.798 101.379C153.787 100.272 153.781 99.3062 153.781 98.4823L153.033 98.6118C152.555 98.6992 151.953 98.7363 151.226 98.7258C150.499 98.7157 149.745 98.6395 148.964 98.4979C148.182 98.3576 147.456 98.032 146.783 97.5221C146.11 97.0121 145.633 96.3445 145.351 95.5205L145.025 94.7714C144.808 94.2727 144.467 93.7187 144 93.1115C143.533 92.5037 143.062 92.0917 142.584 91.8747L142.356 91.7115C142.204 91.6031 142.064 91.4723 141.933 91.3206C141.803 91.1688 141.706 91.017 141.64 90.8649C141.575 90.7127 141.629 90.5878 141.803 90.4899C141.977 90.392 142.291 90.3444 142.747 90.3444L143.398 90.4417C143.832 90.5287 144.369 90.7885 145.009 91.2228C145.649 91.6567 146.175 92.2208 146.588 92.9149C147.087 93.8049 147.689 94.4831 148.395 94.9497C149.1 95.4164 149.81 95.6493 150.526 95.6493C151.242 95.6493 151.861 95.595 152.382 95.4871C152.902 95.3785 153.391 95.2154 153.847 94.9985C154.042 93.5439 154.574 92.4265 155.441 91.6454C154.205 91.5154 153.093 91.3197 152.105 91.0594C151.118 90.7988 150.098 90.3758 149.045 89.7893C147.993 89.2036 147.119 88.4763 146.425 87.6087C145.73 86.7406 145.161 85.6009 144.716 84.1907C144.271 82.7799 144.049 81.1525 144.049 79.308C144.049 76.6817 144.906 74.4469 146.621 72.6022C145.818 70.6277 145.893 68.4143 146.848 65.9621C147.478 65.7665 148.411 65.9133 149.648 66.4014C150.885 66.8897 151.791 67.308 152.366 67.6548C152.941 68.0015 153.402 68.2953 153.749 68.5336C155.768 67.9696 157.851 67.6875 159.999 67.6875C162.148 67.6875 164.231 67.9696 166.25 68.5336L167.487 67.7528C168.333 67.2317 169.332 66.7542 170.481 66.3202C171.631 65.8864 172.511 65.7669 173.119 65.9624C174.095 68.4147 174.182 70.628 173.378 72.6025C175.093 74.4472 175.95 76.6827 175.95 79.3084C175.95 81.1529 175.727 82.7854 175.283 84.207C174.838 85.6289 174.264 86.7674 173.559 87.625C172.853 88.4825 171.974 89.2041 170.921 89.7896C169.869 90.3757 168.848 90.7986 167.861 91.0593C166.874 91.3199 165.762 91.5158 164.525 91.646C165.653 92.6222 166.217 94.163 166.217 96.2679V103.136C166.217 103.526 166.353 103.852 166.624 104.112C166.896 104.372 167.324 104.448 167.91 104.339C172.945 102.669 177.052 99.6577 180.231 95.3066C183.41 90.9558 185 86.0572 185 80.6097C184.999 76.0753 183.88 71.893 181.646 68.0628Z" fill="#5A677D"/>
<path d="M310.326 74.6853C309.593 74.6853 309.095 74.7533 308.833 74.8306V79.5393C309.145 79.6074 309.522 79.6321 310.041 79.6321C311.961 79.6321 313.146 78.6644 313.146 77.0288C313.142 75.5633 312.125 74.6853 310.326 74.6853Z" fill="#5A677D"/>
<path d="M316.809 55H273.194C271.431 55 270 56.4284 270 58.1907V101.809C270 103.565 271.428 104.997 273.194 104.997H316.809C318.572 104.997 320 103.565 320 101.809V58.1907C320 56.4284 318.572 55 316.809 55ZM285.162 80.7235C283.931 81.8829 282.107 82.4023 279.977 82.4023C279.504 82.4023 279.077 82.3776 278.747 82.3312V88.0386H275.173V72.2953C276.286 72.1067 277.847 71.9645 280.051 71.9645C282.274 71.9645 283.863 72.3943 284.927 73.2445C285.947 74.0514 286.634 75.3747 286.634 76.9361C286.634 78.4974 286.111 79.8238 285.162 80.7235ZM302.099 88.0386H298.5V81.3604H292.561V88.0386H288.937V72.0851H292.561V78.216H298.5V72.0851H302.099V88.0386ZM315.248 80.7235C314.021 81.8829 312.196 82.4023 310.063 82.4023C309.593 82.4023 309.163 82.3776 308.833 82.3312V88.0386H305.262V72.2953C306.372 72.1067 307.933 71.9645 310.137 71.9645C312.363 71.9645 313.946 72.3943 315.013 73.2445C316.033 74.0514 316.72 75.3747 316.72 76.9361C316.717 78.4974 316.197 79.8238 315.248 80.7235Z" fill="#5A677D"/>
<path d="M280.24 74.6853C279.504 74.6853 279.009 74.7533 278.747 74.8306V79.5393C279.056 79.6074 279.433 79.6321 279.955 79.6321C281.872 79.6321 283.056 78.6644 283.056 77.0288C283.056 75.5633 282.039 74.6853 280.24 74.6853Z" fill="#5A677D"/>
<path d="M10.2271 223.936V231.284H12.1013V229.37L13.8069 231.075H16.6826L14.4016 228.794C14.4016 228.794 16.0425 228.768 16.1666 226.395C16.1666 224.218 14.5238 223.936 12.6265 223.936H10.2271ZM12.1905 225.929H13.8069V227.238H12.1905V225.929Z" fill="#5A677D"/>
<path d="M20.3024 223.965C19.2762 223.959 17.8529 224.054 17.8529 225.988V231.095H19.7766V229.846H21.6409V231.066H23.5747V225.711C23.5747 224.031 21.7085 223.965 20.7089 223.965C20.5839 223.965 20.449 223.966 20.3024 223.965ZM19.8064 225.81H21.6114V227.823H19.8064V225.81Z" fill="#5A677D"/>
<path d="M27.4925 223.97H25.5022V231H27.4925V223.97Z" fill="#5A677D"/>
<path d="M29.577 224.063V231.093H34.3668V229.227H31.5366V224.032L29.577 224.063Z" fill="#5A677D"/>
<path d="M40.7122 224.001V225.899H37.5084V226.583C37.5084 226.583 38.1618 226.583 38.8768 226.583C39.5917 226.583 41.0851 226.552 41.0851 228.791C41.0851 231.031 40.0588 231.155 37.9749 231.155C35.8907 231.155 35.4556 231.155 35.4556 231.155V229.444C35.4556 229.444 37.4773 229.444 38.3481 229.444C39.2188 229.444 39.2671 229.16 39.2671 228.914C39.2671 228.667 38.8219 228.551 37.9162 228.551C37.0105 228.551 35.3312 228.107 35.3312 226.365C35.3312 224.623 36.202 223.969 37.9438 223.969C39.6856 223.969 40.7122 224.001 40.7122 224.001Z" fill="#5A677D"/>
<path d="M11.9718 221.855H28.5194C28.5194 221.855 24.8491 213.519 25.7821 205.868C26.7154 198.216 32.7494 194.732 36.1709 194.359C39.592 193.985 41.4586 196.101 41.4586 196.101L42.2053 194.981C42.2053 194.981 37.2907 190.004 31.0698 190.564C24.8488 191.124 20.5566 195.23 17.8818 200.206C15.2067 205.183 13.6515 208.667 12.5941 213.892C11.5368 219.118 11.9718 221.855 11.9718 221.855Z" fill="#5A677D"/>
<path d="M8.67506 213.519L11.9099 213.768L11.3498 217.002L8.30188 216.629L8.67506 213.519Z" fill="#5A677D"/>
<path d="M13.7762 206.676L14.6472 204.25L11.7855 203.13L10.8526 205.743L13.7762 206.676Z" fill="#5A677D"/>
<path d="M17.8196 198.34L19.4992 196.35L17.322 194.919L15.5802 196.847L17.8196 198.34Z" fill="#5A677D"/>
<path d="M22.2362 190.627L23.7293 192.431L25.7821 191.248L24.289 189.569L22.2362 190.627Z" fill="#5A677D"/>
<path d="M29.5148 188.574L29.888 190.378L32.4387 190.316L32.1896 188.698L29.5148 188.574Z" fill="#5A677D"/>
<path d="M38.1618 190.502L38.0996 191.622L39.8414 192.555L40.2146 191.995L38.1618 190.502Z" fill="#5A677D"/>
<path d="M37.7883 195.292V196.225L39.468 196.412V195.665L37.7883 195.292Z" fill="#5A677D"/>
<path d="M32.4387 196.101L33.2473 197.594L34.4294 196.661L34.1806 195.665L32.4387 196.101Z" fill="#5A677D"/>
<path d="M29.8877 198.03L31.132 199.896L30.3853 201.202L28.5813 199.212L29.8877 198.03Z" fill="#5A677D"/>
<path d="M27.3998 203.193L26.591 204.81L28.706 206.614L29.2035 204.561L27.3998 203.193Z" fill="#5A677D"/>
<path d="M26.5288 208.853L26.4044 211.031L29.017 212.15L28.8926 210.097L26.5288 208.853Z" fill="#5A677D"/>
<path d="M27.2751 216.567L27.8974 218.807L31.1942 218.994L30.0121 216.567H27.2751Z" fill="#5A677D"/>
<path d="M184.167 186H135.833C135.372 186 135 186.373 135 186.833V235.167C135 235.627 135.372 236 135.833 236H184.167C184.627 236 185 235.627 185 235.167V186.833C185 186.373 184.628 186 184.167 186ZM163.333 224.333C163.333 228.468 159.969 231.833 155.833 231.833C151.697 231.833 148.333 228.468 148.333 224.333C148.333 223.873 148.706 223.5 149.167 223.5C149.627 223.5 150 223.873 150 224.333C150 227.55 152.617 230.167 155.833 230.167C159.049 230.167 161.667 227.55 161.667 224.333V204.333C161.667 203.873 162.039 203.5 162.5 203.5C162.961 203.5 163.333 203.873 163.333 204.333V224.333H163.333ZM173.333 216.833C177.469 216.833 180.833 220.198 180.833 224.333C180.833 228.468 177.469 231.833 173.333 231.833C169.197 231.833 165.833 228.468 165.833 224.333C165.833 223.873 166.206 223.5 166.667 223.5C167.127 223.5 167.5 223.873 167.5 224.333C167.5 227.55 170.117 230.167 173.333 230.167C176.549 230.167 179.167 227.55 179.167 224.333C179.167 221.117 176.549 218.5 173.333 218.5C169.197 218.5 165.833 215.135 165.833 211C165.833 206.865 169.197 203.5 173.333 203.5C177.469 203.5 180.833 206.865 180.833 211C180.833 211.46 180.461 211.833 180 211.833C179.539 211.833 179.167 211.46 179.167 211C179.167 207.783 176.549 205.167 173.333 205.167C170.117 205.167 167.5 207.783 167.5 211C167.5 214.217 170.117 216.833 173.333 216.833Z" fill="#5A677D"/>
<g clip-path="url(#clip2)">
<path d="M389.239 13.5653L389.238 13.5264C389.216 13.0461 389.201 12.538 389.193 11.9727C389.152 9.21578 386.96 6.93536 384.203 6.78125C378.454 6.46043 374.007 4.5859 370.207 0.882219L370.175 0.85132C368.935 -0.285075 367.066 -0.285075 365.826 0.85132L365.794 0.882219C361.994 4.5859 357.547 6.46043 351.798 6.78163C349.041 6.93536 346.849 9.21578 346.808 11.973C346.8 12.5346 346.785 13.0427 346.763 13.5264L346.761 13.6168C346.649 19.4788 346.51 26.7744 348.951 33.3963C350.293 37.0378 352.325 40.2032 354.992 42.8052C358.028 45.7685 362.005 48.121 366.813 49.7972C366.969 49.8517 367.131 49.896 367.297 49.9292C367.53 49.9757 367.765 49.999 368 49.999C368.235 49.999 368.471 49.9757 368.704 49.9292C368.869 49.896 369.033 49.8513 369.19 49.7964C373.992 48.1172 377.965 45.7635 380.999 42.8007C383.664 40.1979 385.696 37.0317 387.039 33.3895C389.489 26.7477 389.35 19.4384 389.239 13.5653ZM384.286 32.3744C381.712 39.3537 376.458 44.1469 368.222 47.027C368.193 47.0369 368.161 47.0456 368.129 47.0521C368.044 47.0689 367.957 47.0689 367.871 47.0518C367.839 47.0453 367.808 47.0369 367.779 47.027C359.534 44.1522 354.276 39.3617 351.704 32.382C349.455 26.2781 349.582 19.581 349.694 13.6729L349.695 13.6401C349.718 13.1323 349.733 12.6006 349.742 12.0161C349.76 10.792 350.735 9.77921 351.962 9.71093C355.215 9.52935 358.073 8.90069 360.699 7.78909C363.321 6.67902 365.651 5.11423 367.819 3.00547C367.929 2.91239 368.072 2.91201 368.182 3.00547C370.351 5.11423 372.68 6.67902 375.302 7.78909C377.928 8.90069 380.786 9.52935 384.04 9.71093C385.266 9.77921 386.241 10.792 386.259 12.0165C386.268 12.604 386.283 13.1358 386.306 13.6401C386.418 19.5551 386.542 26.2575 384.286 32.3744Z" fill="#5A677D"/>
<path d="M368 12.54C361.129 12.54 355.539 18.1301 355.539 25.0007C355.539 31.8718 361.129 37.4618 368 37.4618C374.87 37.4618 380.46 31.8718 380.46 25.0007C380.46 18.1301 374.87 12.54 368 12.54ZM368 34.5276C362.746 34.5276 358.473 30.254 358.473 25.0007C358.473 19.7475 362.746 15.4739 368 15.4739C373.253 15.4739 377.526 19.7475 377.526 25.0007C377.526 30.254 373.253 34.5276 368 34.5276Z" fill="#5A677D"/>
<path d="M371.581 21.1323L365.793 26.9199L364.222 25.349C363.649 24.7761 362.721 24.7761 362.148 25.349C361.575 25.922 361.575 26.8509 362.148 27.4235L364.756 30.032C365.043 30.3185 365.418 30.4615 365.793 30.4615C366.169 30.4615 366.544 30.3185 366.831 30.032L373.656 23.2067C374.228 22.6337 374.228 21.7049 373.656 21.1323C373.083 20.5589 372.154 20.5589 371.581 21.1323Z" fill="#5A677D"/>
</g>
<path d="M295 186C281.219 186 270 197.21 270 211C270 224.781 281.219 236 295 236C308.781 236 320 224.781 320 211C320 197.208 308.781 186 295 186ZM272.521 210.998C272.521 207.742 273.215 204.648 274.467 201.854L285.192 231.229C277.69 227.581 272.521 219.892 272.521 210.998ZM295 233.479C292.792 233.479 290.665 233.156 288.65 232.56L295.394 212.965L302.3 231.896C302.35 232.008 302.402 232.106 302.46 232.208C300.131 233.025 297.621 233.479 295 233.479ZM298.094 200.469V200.467C299.444 200.396 300.662 200.256 300.662 200.256C301.873 200.115 301.731 198.331 300.521 198.4C300.521 198.4 296.881 198.681 294.533 198.681C292.325 198.681 288.615 198.4 288.615 198.4C287.406 198.329 287.267 200.185 288.475 200.256C288.475 200.256 289.623 200.398 290.833 200.467L294.331 210.062L289.412 224.81L281.229 200.467C282.581 200.396 283.8 200.256 283.8 200.256C285.01 200.115 284.869 198.331 283.658 198.4C283.658 198.4 280.019 198.681 277.671 198.681C277.248 198.681 276.752 198.671 276.219 198.652C280.242 192.552 287.146 188.521 295 188.521C300.848 188.521 306.179 190.76 310.181 194.417C310.079 194.406 309.99 194.398 309.89 194.398C307.681 194.398 306.119 196.323 306.119 198.39C306.119 200.244 307.187 201.806 308.327 203.662C309.183 205.154 310.183 207.079 310.183 209.863C310.183 211.788 309.448 214.015 308.469 217.131L306.229 224.621L298.094 200.469ZM314.729 200.215C316.483 203.421 317.481 207.09 317.481 211.002C317.481 219.298 312.985 226.535 306.302 230.427L306.3 230.425L313.165 210.575C314.444 207.369 314.879 204.81 314.879 202.521C314.879 201.696 314.829 200.929 314.729 200.215V200.215Z" fill="#5A677D"/>
<path d="M46.3828 75.3641C46.4891 75.8562 46.5797 76.3617 46.6523 76.8664C46.679 77.0524 46.7718 77.2225 46.9137 77.3456C47.0556 77.4687 47.2371 77.5366 47.425 77.5367C47.4626 77.5365 47.5002 77.5336 47.5375 77.5281C47.6396 77.514 47.738 77.4797 47.8268 77.4273C47.9157 77.375 47.9933 77.3055 48.0552 77.223C48.1171 77.1405 48.162 77.0466 48.1874 76.9466C48.2128 76.8467 48.2181 76.7427 48.2031 76.6406C48.125 76.1 48.0281 75.5586 47.9141 75.032C47.8681 74.8319 47.7452 74.6578 47.5719 74.5476C47.3986 74.4374 47.1889 74.3998 46.9881 74.4431C46.7874 74.4863 46.6117 74.6069 46.4992 74.7786C46.3866 74.9504 46.3462 75.1596 46.3867 75.3609L46.3828 75.3641Z" fill="#5A677D"/>
<path d="M9.79922 63.9844C9.99301 63.9843 10.1798 63.9121 10.3234 63.782C10.6969 63.4437 11.0891 63.1125 11.4891 62.7984C11.5702 62.735 11.6381 62.6563 11.6888 62.5666C11.7395 62.477 11.7721 62.3782 11.7846 62.276C11.7972 62.1738 11.7895 62.0701 11.7619 61.9709C11.7344 61.8716 11.6876 61.7788 11.6242 61.6976C11.5608 61.6165 11.4821 61.5486 11.3924 61.4979C11.3028 61.4472 11.204 61.4146 11.1018 61.4021C10.9996 61.3895 10.8959 61.3972 10.7967 61.4248C10.6974 61.4523 10.6046 61.4991 10.5234 61.5625C10.0945 61.8992 9.67422 62.2547 9.27344 62.6172C9.1565 62.7232 9.07439 62.8621 9.03794 63.0156C9.00148 63.1692 9.01239 63.3302 9.06922 63.4774C9.12605 63.6246 9.22614 63.7512 9.35631 63.8404C9.48648 63.9297 9.64062 63.9774 9.79844 63.9773L9.79922 63.9844Z" fill="#5A677D"/>
<path d="M2.66406 76.1031C2.71702 76.1139 2.77094 76.1194 2.825 76.1195C3.00483 76.1192 3.17905 76.0568 3.31825 75.943C3.45744 75.8291 3.55309 75.6707 3.58906 75.4945C3.69219 75.0016 3.81406 74.5031 3.95312 74.0101C3.99672 73.8146 3.96354 73.6098 3.86042 73.438C3.75731 73.2662 3.59215 73.1407 3.39907 73.0872C3.20599 73.0337 2.99976 73.0565 2.82298 73.1508C2.6462 73.245 2.5124 73.4036 2.44922 73.5937C2.30078 74.1187 2.16953 74.6531 2.05859 75.1812C2.01701 75.3837 2.05738 75.5945 2.17087 75.7673C2.28436 75.9401 2.4617 76.0608 2.66406 76.1031V76.1031Z" fill="#5A677D"/>
<path d="M13.6195 61.1867C13.7568 61.1862 13.8915 61.1496 14.0102 61.0805C14.4477 60.8258 14.9 60.5828 15.3523 60.3601C15.4448 60.3151 15.5275 60.2523 15.5956 60.1753C15.6637 60.0982 15.7159 60.0085 15.7493 59.9112C15.7827 59.814 15.7965 59.7111 15.79 59.6085C15.7835 59.5058 15.7568 59.4055 15.7115 59.3132C15.6661 59.2209 15.603 59.1385 15.5258 59.0706C15.4485 59.0028 15.3586 58.9509 15.2612 58.9179C15.1638 58.8848 15.0609 58.8714 14.9583 58.8782C14.8557 58.8851 14.7554 58.9121 14.6633 58.9578C14.1773 59.1969 13.693 59.457 13.2234 59.7305C13.0753 59.8168 12.9596 59.9495 12.8944 60.108C12.8291 60.2666 12.8178 60.4422 12.8622 60.6079C12.9066 60.7735 13.0043 60.9199 13.1402 61.0245C13.2761 61.1291 13.4426 61.1861 13.6141 61.1867H13.6195Z" fill="#5A677D"/>
<path d="M6.64063 67.5063C6.76423 67.5064 6.88611 67.4773 6.99626 67.4212C7.1064 67.3651 7.20166 67.2837 7.27422 67.1836C7.57187 66.7719 7.8875 66.3664 8.21172 65.9781C8.34453 65.8188 8.40861 65.6132 8.38986 65.4066C8.37111 65.2001 8.27106 65.0094 8.11172 64.8766C7.95238 64.7438 7.74681 64.6797 7.54023 64.6984C7.33364 64.7172 7.14297 64.8172 7.01016 64.9766C6.6625 65.3922 6.325 65.8266 6.00547 66.2672C5.94489 66.3504 5.90135 66.4448 5.87735 66.5449C5.85335 66.645 5.84937 66.7488 5.86563 66.8504C5.88189 66.9521 5.91808 67.0495 5.97211 67.1371C6.02614 67.2247 6.09695 67.3008 6.18047 67.3609C6.31441 67.4573 6.47566 67.5082 6.64063 67.5063V67.5063Z" fill="#5A677D"/>
<path d="M3.95937 71.5445C4.05885 71.5893 4.16669 71.6125 4.27578 71.6125C4.42746 71.6121 4.57574 71.5676 4.70254 71.4844C4.82934 71.4011 4.92917 71.2828 4.98984 71.1438C5.19453 70.6828 5.41953 70.2203 5.65781 69.7703C5.75478 69.5872 5.77501 69.373 5.71406 69.1749C5.65311 68.9768 5.51597 68.811 5.33281 68.7141C5.14964 68.6171 4.93546 68.5969 4.73737 68.6578C4.53929 68.7188 4.37353 68.8559 4.27656 69.0391C4.02109 69.5211 3.78125 70.0164 3.56171 70.5109C3.51971 70.6049 3.49668 70.7062 3.49394 70.8091C3.4912 70.9119 3.50882 71.0143 3.54577 71.1104C3.58272 71.2064 3.63828 71.2942 3.70926 71.3687C3.78023 71.4432 3.86523 71.503 3.95937 71.5445Z" fill="#5A677D"/>
<path d="M43.5109 68.3406C43.6214 68.5161 43.797 68.6406 43.9992 68.6866C44.2014 68.7326 44.4136 68.6964 44.5891 68.5859C44.7646 68.4755 44.889 68.2999 44.935 68.0977C44.981 67.8955 44.9448 67.6833 44.8344 67.5078C44.5461 67.0508 44.2359 66.5961 43.9141 66.1562C43.8555 66.0684 43.7797 65.9933 43.6913 65.9355C43.6029 65.8777 43.5037 65.8385 43.3997 65.8201C43.2957 65.8018 43.189 65.8047 43.0862 65.8287C42.9834 65.8527 42.8865 65.8974 42.8013 65.9599C42.7162 66.0224 42.6447 66.1016 42.591 66.1926C42.5374 66.2835 42.5027 66.3844 42.4892 66.4892C42.4756 66.5939 42.4834 66.7003 42.5121 66.8019C42.5409 66.9036 42.5899 66.9983 42.6563 67.0805C42.9547 67.4906 43.2437 67.9141 43.5109 68.3406V68.3406Z" fill="#5A677D"/>
<path d="M40.6836 64.7508C40.7548 64.8256 40.8402 64.8855 40.9347 64.927C41.0292 64.9686 41.131 64.9911 41.2343 64.993C41.3375 64.995 41.4401 64.9765 41.5361 64.9386C41.6322 64.9007 41.7198 64.8441 41.7938 64.7721C41.8678 64.7001 41.9269 64.6142 41.9675 64.5193C42.0081 64.4243 42.0295 64.3223 42.0305 64.219C42.0314 64.1158 42.0119 64.0134 41.973 63.9177C41.9341 63.8221 41.8766 63.7351 41.8039 63.6617C41.4273 63.2711 41.0312 62.8938 40.6242 62.5297C40.4695 62.3938 40.2674 62.3244 40.0618 62.3367C39.8562 62.349 39.6638 62.442 39.5265 62.5955C39.3891 62.7489 39.3179 62.9504 39.3283 63.1561C39.3387 63.3617 39.4299 63.555 39.582 63.6938C39.9617 64.0336 40.332 64.3899 40.6836 64.7508V64.7508Z" fill="#5A677D"/>
<path d="M3.60704 84.5906C3.50157 84.0992 3.41251 83.5938 3.34063 83.0891C3.32739 82.9865 3.29392 82.8876 3.24215 82.798C3.19039 82.7085 3.12136 82.6301 3.03907 82.5675C2.95678 82.5048 2.86287 82.4591 2.76278 82.433C2.6627 82.407 2.55843 82.401 2.45603 82.4156C2.35363 82.4301 2.25513 82.4648 2.16626 82.5177C2.07738 82.5706 1.99989 82.6406 1.93828 82.7237C1.87667 82.8068 1.83217 82.9012 1.80736 83.0016C1.78255 83.1021 1.77793 83.2064 1.79375 83.3086C1.87188 83.8492 1.96641 84.3906 2.07891 84.9172C2.11626 85.092 2.21241 85.2486 2.35131 85.3611C2.49021 85.4736 2.66347 85.535 2.84219 85.5352C2.89735 85.5356 2.95239 85.5299 3.00625 85.518C3.1066 85.4965 3.20173 85.4555 3.28623 85.3973C3.37073 85.3391 3.44294 85.2649 3.49873 85.1787C3.55452 85.0926 3.5928 84.9964 3.61138 84.8955C3.62996 84.7945 3.62849 84.691 3.60704 84.5906V84.5906Z" fill="#5A677D"/>
<path d="M35.8758 61.0156C36.3148 61.2672 36.7508 61.5391 37.1719 61.8211C37.257 61.8786 37.3527 61.9187 37.4533 61.9392C37.554 61.9597 37.6577 61.9601 37.7585 61.9405C37.8594 61.9209 37.9554 61.8817 38.041 61.825C38.1267 61.7683 38.2004 61.6953 38.2578 61.6102C38.3153 61.525 38.3554 61.4294 38.3759 61.3287C38.3964 61.2281 38.3968 61.1243 38.3773 61.0235C38.3577 60.9227 38.3184 60.8267 38.2617 60.741C38.205 60.6553 38.132 60.5817 38.0469 60.5242C37.5953 60.2219 37.1289 59.9313 36.6578 59.6648C36.4781 59.5612 36.2645 59.5333 36.0642 59.5871C35.8638 59.641 35.6931 59.7722 35.5895 59.952C35.4859 60.1317 35.4579 60.3452 35.5117 60.5456C35.5656 60.746 35.6968 60.9167 35.8766 61.0203L35.8758 61.0156Z" fill="#5A677D"/>
<path d="M44.9555 71.0258C45.1625 71.4844 45.3563 71.9594 45.5328 72.4367C45.5665 72.5355 45.6195 72.6265 45.6889 72.7044C45.7583 72.7823 45.8426 72.8455 45.9368 72.8903C46.031 72.9351 46.1332 72.9606 46.2374 72.9653C46.3416 72.9699 46.4457 72.9537 46.5435 72.9175C46.6413 72.8813 46.7309 72.8258 46.807 72.7544C46.8831 72.683 46.944 72.5971 46.9864 72.5018C47.0287 72.4065 47.0515 72.3036 47.0535 72.1993C47.0554 72.095 47.0364 71.9914 46.9977 71.8945C46.8094 71.3836 46.6008 70.8789 46.3805 70.3844C46.3384 70.2908 46.2782 70.2065 46.2035 70.1361C46.1288 70.0658 46.041 70.0109 45.945 69.9745C45.8491 69.9381 45.7469 69.921 45.6443 69.9241C45.5418 69.9272 45.4408 69.9505 45.3473 69.9926C45.2537 70.0347 45.1693 70.0948 45.099 70.1695C45.0287 70.2443 44.9738 70.3321 44.9374 70.428C44.901 70.524 44.8839 70.6262 44.887 70.7287C44.8901 70.8313 44.9134 70.9322 44.9555 71.0258V71.0258Z" fill="#5A677D"/>
<path d="M27.2203 58.2359C27.7211 58.2867 28.2297 58.3555 28.7312 58.4414C28.8331 58.4605 28.9377 58.4591 29.0389 58.4373C29.1402 58.4156 29.2362 58.3739 29.3212 58.3147C29.4062 58.2556 29.4786 58.1801 29.5342 58.0926C29.5898 58.0052 29.6274 57.9076 29.6449 57.8055C29.6624 57.7034 29.6595 57.5989 29.6362 57.4979C29.6129 57.397 29.5698 57.3017 29.5093 57.2176C29.4489 57.1334 29.3723 57.0622 29.2841 57.0079C29.1958 56.9537 29.0977 56.9175 28.9953 56.9016C28.4586 56.8094 27.9133 56.7352 27.3758 56.6813C27.2737 56.671 27.1706 56.6809 27.0724 56.7105C26.9741 56.7401 26.8827 56.7888 26.8032 56.8537C26.7238 56.9186 26.6579 56.9986 26.6094 57.0889C26.5608 57.1793 26.5306 57.2784 26.5203 57.3805C26.5101 57.4826 26.52 57.5857 26.5496 57.6839C26.5792 57.7821 26.6278 57.8736 26.6927 57.953C26.7577 58.0325 26.8376 58.0983 26.928 58.1469C27.0184 58.1954 27.1174 58.2257 27.2195 58.2359H27.2203Z" fill="#5A677D"/>
<path d="M22.5625 58.2547C22.5907 58.2547 22.6189 58.2531 22.6469 58.25C23.1539 58.1953 23.6625 58.1586 24.168 58.1414C24.2706 58.1379 24.3716 58.1141 24.4651 58.0715C24.5586 58.0289 24.6428 57.9683 24.7128 57.8931C24.7828 57.8179 24.8374 57.7297 24.8732 57.6334C24.9091 57.5371 24.9256 57.4347 24.9219 57.332C24.9121 57.1258 24.8221 56.9315 24.671 56.7908C24.5199 56.65 24.3197 56.574 24.1133 56.5789C23.5742 56.5984 23.0258 56.6383 22.482 56.6961C22.2748 56.707 22.0804 56.7997 21.9416 56.9539C21.8028 57.1081 21.7309 57.3112 21.7418 57.5184C21.7527 57.7256 21.8454 57.9199 21.9996 58.0588C22.1538 58.1976 22.3569 58.2695 22.5641 58.2586L22.5625 58.2547Z" fill="#5A677D"/>
<path d="M31.693 59.1672C32.1773 59.3234 32.6617 59.4969 33.1305 59.6852C33.2261 59.7258 33.329 59.747 33.4329 59.7474C33.5369 59.7479 33.6399 59.7276 33.7359 59.6877C33.8319 59.6478 33.919 59.5891 33.992 59.5152C34.0651 59.4412 34.1226 59.3534 34.1613 59.2569C34.2 59.1604 34.219 59.0571 34.2173 58.9532C34.2156 58.8493 34.1931 58.7467 34.1512 58.6515C34.1094 58.5564 34.0489 58.4705 33.9735 58.399C33.898 58.3275 33.809 58.2718 33.7117 58.2352C33.2086 58.0328 32.6898 57.8445 32.1711 57.6797C31.9785 57.6306 31.7743 57.6568 31.6004 57.753C31.4264 57.8492 31.2956 58.008 31.2346 58.1972C31.1737 58.3865 31.1872 58.5918 31.2723 58.7714C31.3575 58.9511 31.5079 59.0915 31.693 59.1641V59.1672Z" fill="#5A677D"/>
<path d="M17.9359 59.2484C18.0187 59.2481 18.1009 59.2349 18.1797 59.2094C18.6578 59.0531 19.1508 58.9094 19.6453 58.7852C19.8463 58.7345 20.0189 58.6061 20.1252 58.4281C20.2315 58.2502 20.2628 58.0373 20.2121 57.8363C20.1614 57.6353 20.033 57.4627 19.8551 57.3564C19.6771 57.2501 19.4643 57.2189 19.2633 57.2695C18.7336 57.4031 18.2055 57.5562 17.6922 57.7242C17.5151 57.7818 17.3644 57.9007 17.2673 58.0595C17.1701 58.2184 17.1329 58.4067 17.1623 58.5906C17.1917 58.7744 17.2858 58.9417 17.4276 59.0623C17.5695 59.183 17.7497 59.249 17.9359 59.2484V59.2484Z" fill="#5A677D"/>
<path d="M3.125 80C3.125 79.5021 3.14141 79.0089 3.17422 78.5203C3.18794 78.3136 3.11903 78.11 2.98263 77.9541C2.84624 77.7982 2.65354 77.7029 2.44688 77.6891C2.34427 77.6807 2.24103 77.6929 2.14326 77.7252C2.04549 77.7574 1.95517 77.8089 1.87766 77.8766C1.80015 77.9444 1.73703 78.027 1.69202 78.1196C1.64701 78.2121 1.62103 78.3128 1.61563 78.4156C1.58047 78.9391 1.5625 79.4719 1.5625 79.9781V80.0445C1.56298 80.1459 1.5837 80.2461 1.62344 80.3393C1.66318 80.4325 1.72113 80.5169 1.7939 80.5874C1.86667 80.6579 1.9528 80.7132 2.04722 80.7499C2.14164 80.7867 2.24245 80.8043 2.34375 80.8016C2.5528 80.7963 2.7515 80.7095 2.89745 80.5597C3.04341 80.41 3.12507 80.2091 3.125 80V80Z" fill="#5A677D"/>
<path d="M31.7773 100.805C31.293 100.961 30.7992 101.104 30.3117 101.225C30.2115 101.249 30.1171 101.293 30.0339 101.354C29.9507 101.414 29.8803 101.491 29.8268 101.579C29.7734 101.667 29.7379 101.765 29.7224 101.867C29.7068 101.969 29.7116 102.073 29.7365 102.173C29.7613 102.273 29.8057 102.367 29.8671 102.45C29.9284 102.533 30.0056 102.602 30.094 102.655C30.1825 102.708 30.2806 102.743 30.3825 102.758C30.4845 102.772 30.5884 102.767 30.6883 102.741C31.2117 102.612 31.7414 102.46 32.2609 102.291C32.3623 102.262 32.4569 102.213 32.539 102.148C32.6212 102.082 32.6891 102 32.7388 101.907C32.7884 101.814 32.8188 101.712 32.8281 101.607C32.8373 101.502 32.8253 101.397 32.7927 101.296C32.7601 101.196 32.7075 101.104 32.6382 101.024C32.569 100.945 32.4844 100.881 32.3895 100.835C32.2947 100.789 32.1916 100.763 32.0864 100.758C31.9812 100.753 31.876 100.77 31.7773 100.806V100.805Z" fill="#5A677D"/>
<path d="M39.643 96.25C39.2664 96.5899 38.8727 96.9203 38.4711 97.2328C38.3864 97.2946 38.3149 97.3728 38.2611 97.4627C38.2072 97.5526 38.1719 97.6525 38.1575 97.7564C38.143 97.8602 38.1496 97.9659 38.1768 98.0672C38.2041 98.1684 38.2514 98.2631 38.3161 98.3457C38.3807 98.4283 38.4613 98.497 38.553 98.5477C38.6447 98.5985 38.7458 98.6303 38.85 98.6412C38.9543 98.6521 39.0597 98.6419 39.16 98.6112C39.2602 98.5805 39.3533 98.5299 39.4336 98.4625C39.8609 98.1281 40.282 97.7742 40.6836 97.4117C40.8235 97.2702 40.9042 97.0806 40.9091 96.8817C40.914 96.6827 40.8428 96.4893 40.71 96.3411C40.5772 96.1929 40.3929 96.1009 40.1946 96.0839C39.9963 96.067 39.799 96.1264 39.643 96.25Z" fill="#5A677D"/>
<path d="M35.95 98.9422C35.5109 99.1961 35.0586 99.4375 34.6047 99.6602C34.4453 99.7374 34.3168 99.8664 34.2404 100.026C34.164 100.186 34.1441 100.367 34.1841 100.54C34.2241 100.712 34.3215 100.866 34.4603 100.976C34.5992 101.086 34.7713 101.145 34.9484 101.145C35.0673 101.145 35.1846 101.119 35.2914 101.066C35.7781 100.832 36.2625 100.57 36.7328 100.298C36.9056 100.192 37.0299 100.022 37.0794 99.8247C37.129 99.6277 37.0999 99.4191 36.9983 99.2433C36.8967 99.0674 36.7306 98.938 36.5352 98.8825C36.3398 98.827 36.1304 98.8498 35.9516 98.9461L35.95 98.9422Z" fill="#5A677D"/>
<path d="M42.7023 92.8539C42.4062 93.2609 42.0898 93.6656 41.7648 94.0578C41.6968 94.1361 41.6451 94.2273 41.6127 94.3258C41.5802 94.4244 41.5678 94.5284 41.576 94.6319C41.5842 94.7353 41.6129 94.836 41.6605 94.9283C41.7081 95.0205 41.7736 95.1023 41.8531 95.1689C41.9327 95.2355 42.0247 95.2856 42.1238 95.3163C42.2229 95.347 42.3272 95.3576 42.4305 95.3475C42.5337 95.3375 42.634 95.307 42.7253 95.2578C42.8167 95.2085 42.8973 95.1416 42.9625 95.0609C43.3133 94.6414 43.6523 94.2086 43.9687 93.7726C44.032 93.6899 44.0781 93.5953 44.1043 93.4945C44.1305 93.3936 44.1363 93.2886 44.1213 93.1855C44.1063 93.0824 44.0708 92.9833 44.017 92.8942C43.9631 92.805 43.892 92.7275 43.8077 92.6662C43.7235 92.6049 43.6278 92.5611 43.5264 92.5373C43.4249 92.5136 43.3197 92.5104 43.217 92.5278C43.1143 92.5453 43.0162 92.5832 42.9283 92.6392C42.8405 92.6952 42.7647 92.7682 42.7055 92.8539H42.7023Z" fill="#5A677D"/>
<path d="M47.6563 79.1242C47.449 79.1242 47.2503 79.2065 47.1038 79.353C46.9573 79.4995 46.875 79.6983 46.875 79.9055V80C46.875 80.507 46.8578 81.0211 46.8227 81.525C46.8155 81.6274 46.8287 81.7302 46.8613 81.8275C46.8939 81.9248 46.9454 82.0148 47.0128 82.0922C47.0802 82.1696 47.1622 82.233 47.2541 82.2787C47.346 82.3244 47.446 82.3515 47.5484 82.3586H47.6031C47.8013 82.359 47.9923 82.2842 48.1373 82.1491C48.2824 82.0141 48.3707 81.829 48.3844 81.6312C48.4188 81.0937 48.4375 80.5469 48.4375 80V79.9055C48.4375 79.6983 48.3552 79.4995 48.2087 79.353C48.0622 79.2065 47.8635 79.1242 47.6563 79.1242Z" fill="#5A677D"/>
<path d="M47.3273 83.9438C47.1247 83.9012 46.9135 83.9408 46.74 84.0539C46.5666 84.167 46.4451 84.3443 46.4023 84.5469C46.2984 85.0391 46.175 85.5367 46.0344 86.0313C45.9775 86.2304 46.002 86.4439 46.1025 86.625C46.203 86.8061 46.3712 86.9398 46.5703 86.9969C46.6406 87.0173 46.7135 87.0275 46.7867 87.0274C46.9564 87.0273 47.1214 86.972 47.2569 86.8698C47.3923 86.7676 47.4908 86.6241 47.5375 86.4609C47.6875 85.9352 47.8195 85.4008 47.9281 84.8727C47.9498 84.7722 47.9514 84.6685 47.933 84.5674C47.9145 84.4663 47.8763 84.3698 47.8205 84.2836C47.7646 84.1973 47.6924 84.1228 47.6077 84.0645C47.5231 84.0062 47.4278 83.9652 47.3273 83.9438V83.9438Z" fill="#5A677D"/>
<path d="M46.0234 88.4992C45.8342 88.415 45.6192 88.4095 45.4258 88.4837C45.2324 88.558 45.0764 88.7061 44.9922 88.8953C44.7867 89.3547 44.5609 89.8164 44.3211 90.268C44.224 90.451 44.2035 90.665 44.2641 90.8631C44.3248 91.0612 44.4616 91.227 44.6445 91.3242C44.757 91.3845 44.8826 91.4159 45.0102 91.4157C45.152 91.4158 45.2913 91.3774 45.4129 91.3045C45.5346 91.2315 45.6341 91.1268 45.7008 91.0016C45.9578 90.5188 46.2 90.0242 46.4188 89.5305C46.503 89.3413 46.5087 89.1264 46.4346 88.933C46.3604 88.7397 46.2126 88.5836 46.0234 88.4992V88.4992Z" fill="#5A677D"/>
<path d="M6.46328 91.6203C6.35099 91.4494 6.17621 91.3294 5.97643 91.286C5.77665 91.2425 5.5678 91.2791 5.3947 91.3879C5.2216 91.4967 5.09804 91.669 5.05054 91.8679C5.00304 92.0667 5.03538 92.2763 5.14062 92.4515C5.42891 92.9109 5.7375 93.3664 6.05703 93.8039C6.1168 93.8885 6.19279 93.9603 6.28057 94.0152C6.36836 94.0702 6.46619 94.1071 6.56838 94.1239C6.67057 94.1407 6.77508 94.137 6.87582 94.113C6.97657 94.0891 7.07155 94.0453 7.15523 93.9843C7.23892 93.9233 7.30964 93.8463 7.36329 93.7577C7.41693 93.6691 7.45243 93.5708 7.46772 93.4683C7.48301 93.3659 7.47778 93.2615 7.45234 93.1611C7.4269 93.0607 7.38175 92.9664 7.31953 92.8836C7.02109 92.4742 6.73281 92.0492 6.46328 91.6203V91.6203Z" fill="#5A677D"/>
<path d="M14.0844 98.9617C13.6469 98.7086 13.2109 98.4367 12.7891 98.1523C12.704 98.095 12.6084 98.055 12.5078 98.0345C12.4073 98.0141 12.3036 98.0137 12.2029 98.0333C12.1022 98.053 12.0063 98.0922 11.9208 98.1489C11.8352 98.2056 11.7616 98.2786 11.7043 98.3637C11.6469 98.4488 11.6069 98.5443 11.5865 98.6449C11.5661 98.7455 11.5657 98.8491 11.5853 98.9498C11.6049 99.0506 11.6442 99.1464 11.7009 99.232C11.7575 99.3175 11.8305 99.3911 11.9156 99.4484C12.368 99.7531 12.8352 100.045 13.3031 100.315C13.392 100.367 13.4903 100.401 13.5924 100.415C13.6945 100.429 13.7983 100.423 13.8979 100.396C13.9975 100.37 14.091 100.324 14.1728 100.261C14.2546 100.199 14.3233 100.121 14.3748 100.032C14.4263 99.9423 14.4597 99.8437 14.473 99.7416C14.4863 99.6394 14.4792 99.5356 14.4522 99.4362C14.4252 99.3367 14.3788 99.2436 14.3157 99.1622C14.2526 99.0808 14.1739 99.0126 14.0844 98.9617Z" fill="#5A677D"/>
<path d="M9.28438 95.2164C9.13994 95.069 8.94305 94.9848 8.73669 94.982C8.53034 94.9793 8.33129 95.0583 8.18301 95.2019C8.03473 95.3454 7.94926 95.5418 7.94528 95.7481C7.94129 95.9544 8.0191 96.154 8.16172 96.3031C8.54063 96.6938 8.93594 97.075 9.33907 97.4375C9.49377 97.5717 9.69498 97.6398 9.89938 97.6271C10.1038 97.6144 10.295 97.522 10.432 97.3697C10.5689 97.2174 10.6406 97.0175 10.6315 96.8129C10.6225 96.6083 10.5334 96.4154 10.3836 96.2758C10.0078 95.9375 9.63751 95.5805 9.28438 95.2164V95.2164Z" fill="#5A677D"/>
<path d="M5.02578 88.9328C4.81796 88.4703 4.62499 87.9953 4.45156 87.5211C4.41626 87.4248 4.36234 87.3363 4.29287 87.2608C4.2234 87.1853 4.13973 87.1242 4.04666 87.0811C3.95358 87.0379 3.85291 87.0135 3.75041 87.0092C3.6479 87.005 3.54555 87.021 3.44921 87.0563C3.35288 87.0915 3.26443 87.1455 3.18894 87.2149C3.11344 87.2844 3.05236 87.3681 3.0092 87.4612C2.96603 87.5542 2.94163 87.6549 2.93737 87.7574C2.9331 87.8599 2.94908 87.9623 2.98437 88.0586C3.17109 88.5664 3.37499 89.0742 3.59921 89.5711C3.66082 89.709 3.76104 89.826 3.88777 89.9081C4.01449 89.9902 4.16229 90.0338 4.31328 90.0336C4.44361 90.0335 4.57186 90.0009 4.68634 89.9385C4.80082 89.8762 4.89789 89.7863 4.96871 89.6769C5.03953 89.5674 5.08185 89.4421 5.09182 89.3121C5.10179 89.1821 5.07908 89.0518 5.02578 88.9328Z" fill="#5A677D"/>
<path d="M27.3078 101.755C26.8031 101.808 26.2922 101.843 25.7867 101.86C25.5795 101.864 25.3822 101.949 25.2381 102.098C25.094 102.247 25.0149 102.447 25.0184 102.654C25.0218 102.861 25.1074 103.059 25.2563 103.203C25.4052 103.347 25.6053 103.426 25.8125 103.423H25.8398C26.3812 103.405 26.9297 103.366 27.4711 103.309C27.676 103.286 27.8636 103.183 27.9928 103.023C28.1221 102.862 28.1825 102.656 28.161 102.451C28.1394 102.246 28.0376 102.058 27.8778 101.928C27.718 101.797 27.5131 101.735 27.3078 101.755V101.755Z" fill="#5A677D"/>
<path d="M22.7344 101.759C22.2344 101.708 21.7258 101.637 21.2227 101.551C21.0185 101.515 20.8086 101.563 20.6392 101.682C20.4699 101.802 20.3549 101.983 20.3195 102.187C20.2842 102.392 20.3314 102.602 20.4508 102.771C20.5703 102.94 20.7521 103.055 20.9563 103.091C21.4945 103.184 22.0391 103.259 22.575 103.313C22.6009 103.316 22.627 103.318 22.6531 103.318C22.8603 103.328 23.0632 103.256 23.217 103.117C23.3708 102.978 23.4631 102.783 23.4734 102.576C23.4838 102.369 23.4114 102.166 23.2722 102.012C23.1331 101.858 22.9385 101.766 22.7313 101.755L22.7344 101.759Z" fill="#5A677D"/>
<path d="M18.2633 100.818C17.7805 100.662 17.2977 100.487 16.8273 100.298C16.7318 100.257 16.6293 100.237 16.5257 100.236C16.4221 100.236 16.3194 100.257 16.2238 100.297C16.1282 100.336 16.0414 100.395 15.9686 100.469C15.8957 100.542 15.8383 100.63 15.7996 100.726C15.7609 100.822 15.7417 100.925 15.7431 101.028C15.7445 101.132 15.7666 101.234 15.8079 101.329C15.8492 101.424 15.909 101.51 15.9839 101.582C16.0587 101.654 16.147 101.71 16.2437 101.747C16.7477 101.95 17.2656 102.137 17.7828 102.305C17.8606 102.33 17.9418 102.343 18.0234 102.344C18.2102 102.344 18.391 102.278 18.5331 102.157C18.6753 102.036 18.7694 101.868 18.7984 101.684C18.8274 101.499 18.7893 101.311 18.6912 101.152C18.593 100.993 18.4412 100.875 18.2633 100.818V100.818Z" fill="#5A677D"/>
<path d="M44.5313 80C44.5313 76.1371 43.3858 72.3609 41.2396 69.149C39.0935 65.9371 36.0432 63.4338 32.4743 61.9555C28.9054 60.4772 24.9783 60.0904 21.1896 60.844C17.401 61.5977 13.9208 63.4578 11.1893 66.1893C8.45783 68.9208 6.59766 72.401 5.84404 76.1897C5.09042 79.9783 5.4772 83.9054 6.95548 87.4743C8.43375 91.0432 10.9371 94.0935 14.149 96.2396C17.3609 98.3858 21.1371 99.5313 25 99.5313C30.1782 99.5255 35.1427 97.4659 38.8043 93.8043C42.4659 90.1427 44.5255 85.1782 44.5313 80V80ZM7.05078 80.7813H14.8539C14.8923 83.4142 15.2245 86.0346 15.8445 88.5938H9.22422C7.90987 86.1909 7.16619 83.5177 7.05078 80.7813ZM9.22422 71.4063H15.8445C15.2245 73.9654 14.8923 76.5858 14.8539 79.2188H7.05078C7.16619 76.4823 7.90987 73.8092 9.22422 71.4063V71.4063ZM42.9492 79.2188H35.1461C35.1077 76.5858 34.7755 73.9654 34.1555 71.4063H40.7766C42.0903 73.8094 42.8337 76.4824 42.9492 79.2188V79.2188ZM33.5836 79.2188H25.7813V71.4063H32.5078C33.1761 73.9583 33.5372 76.5811 33.5836 79.2188V79.2188ZM25.7813 69.8438V62.1094C28.3391 62.618 30.6117 65.5875 32.0375 69.8438H25.7813ZM24.2188 62.1094V69.8438H17.9625C19.3883 65.5906 21.6609 62.6211 24.2188 62.1094ZM24.2188 71.4063V79.2188H16.4164C16.4631 76.5811 16.8243 73.9584 17.4922 71.4063H24.2188ZM16.4164 80.7813H24.2188V88.5938H17.4922C16.8243 86.0416 16.4631 83.4189 16.4164 80.7813V80.7813ZM24.2188 90.1563V97.8906C21.6609 97.382 19.3883 94.4125 17.9625 90.1563H24.2188ZM25.7813 97.8906V90.1563H32.0375C30.6117 94.4094 28.3391 97.3789 25.7813 97.8906V97.8906ZM25.7813 88.5938V80.7813H33.5836C33.5372 83.419 33.1761 86.0417 32.5078 88.5938H25.7813ZM35.1461 80.7813H42.9492C42.8337 83.5176 42.0903 86.1907 40.7766 88.5938H34.1555C34.7755 86.0346 35.1077 83.4142 35.1461 80.7813V80.7813ZM39.8125 69.8438H33.7188C32.9854 67.1742 31.6277 64.7173 29.7578 62.6758C33.8488 63.8068 37.4094 66.3451 39.8125 69.8438V69.8438ZM20.2414 62.6758C18.3715 64.7172 17.0141 67.1742 16.2813 69.8438H10.1875C12.5905 66.3454 16.1508 63.8071 20.2414 62.6758V62.6758ZM10.1875 90.1563H16.2813C17.0141 92.8259 18.3715 95.2828 20.2414 97.3242C16.1508 96.1929 12.5905 93.6546 10.1875 90.1563V90.1563ZM29.7586 97.3242C31.6285 95.2827 32.9861 92.8258 33.7195 90.1563H39.8133C37.4102 93.6549 33.8496 96.1932 29.7586 97.3242Z" fill="#5A677D"/>
<path d="M346.734 121C346.275 121 345.932 121.374 345.973 121.832L349.847 165.287C349.888 165.745 350.284 166.22 350.727 166.343L367.166 170.907C367.609 171.03 368.334 171.03 368.777 170.908L385.267 166.336C385.709 166.213 386.105 165.738 386.146 165.28L390.027 121.832C390.068 121.374 389.725 121 389.266 121H346.734ZM381.776 130.966C381.74 131.374 381.676 132.083 381.636 132.541L381.533 133.681C381.492 134.139 381.434 134.793 381.403 135.135C381.372 135.477 381.343 135.757 381.338 135.757C381.332 135.757 380.952 135.757 380.493 135.757H368.835C368.376 135.757 367.996 135.757 367.991 135.757C367.986 135.757 367.606 135.757 367.146 135.757H361.007C360.547 135.757 360.205 136.132 360.246 136.589L360.604 140.592C360.645 141.05 361.054 141.424 361.514 141.424H367.147C367.606 141.424 367.986 141.424 367.991 141.424C367.996 141.424 368.376 141.424 368.836 141.424H378.517C378.977 141.424 379.688 141.424 380.098 141.424C380.507 141.424 380.812 141.758 380.775 142.167C380.737 142.575 380.674 143.284 380.633 143.741L379.481 156.646C379.44 157.104 379.388 157.689 379.366 157.946C379.343 158.203 378.962 158.513 378.519 158.636L368.805 161.33C368.362 161.452 367.994 161.554 367.988 161.555C367.981 161.557 367.613 161.458 367.17 161.335L357.445 158.636C357.002 158.513 356.607 158.038 356.566 157.581L355.94 150.555C355.899 150.097 356.242 149.723 356.702 149.723H357.589C358.049 149.723 358.801 149.723 359.26 149.723H360.584C361.043 149.723 361.452 150.097 361.493 150.555L361.739 153.305C361.78 153.763 362.176 154.235 362.62 154.355L367.168 155.583C367.612 155.703 367.977 155.801 367.979 155.801C367.981 155.801 368.345 155.703 368.789 155.583L373.346 154.352C373.789 154.232 374.186 153.76 374.227 153.302L374.721 147.792C374.762 147.334 374.42 146.959 373.96 146.959H368.836C368.376 146.959 367.996 146.959 367.991 146.959C367.986 146.959 367.606 146.959 367.147 146.959H356.454C355.994 146.959 355.585 146.585 355.544 146.127L354.332 132.541C354.291 132.083 354.228 131.374 354.191 130.966C354.155 130.558 354.501 130.224 354.96 130.224H367.147C367.606 130.224 367.986 130.224 367.991 130.224C367.996 130.224 368.376 130.224 368.836 130.224H381.007C381.466 130.224 381.813 130.558 381.776 130.966Z" fill="#5A677D"/>
<defs>
<clipPath id="clip0">
<rect width="50" height="50" fill="white" transform="translate(204 121)"/>
</clipPath>
<clipPath id="clip1">
<rect width="50" height="50" fill="white" transform="translate(66)"/>
</clipPath>
<clipPath id="clip2">
<rect width="50" height="50" fill="white" transform="translate(343)"/>
</clipPath>
</defs>
</svg>
