<?xml version="1.0" encoding="iso-8859-1"?>
<!-- Generator: Adobe Illustrator 19.0.0, SVG Export Plug-In . SVG Version: 6.00 Build 0)  -->
<svg version="1.1" id="Capa_1" xmlns="http://www.w3.org/2000/svg" xmlns:xlink="http://www.w3.org/1999/xlink" x="0px" y="0px"
	 viewBox="0 0 480 480" style="enable-background:new 0 0 480 480;" xml:space="preserve" fill="#ffffff">
<g>
	<g>
		<path d="M398.566,211.793c-5.905-8.653-12.508-16.809-19.743-24.385l17.28-82.064c9.954-47.187-20.229-93.509-67.416-103.464
			c-5.929-1.25-11.972-1.881-18.032-1.88H169.327c-48.226-0.001-87.321,39.093-87.322,87.318c0,6.047,0.628,12.077,1.874,17.994
			l17.28,82.064c-73.236,76.686-70.439,198.221,6.247,271.457c7.576,7.235,15.732,13.838,24.385,19.743v0.032
			c1.33,0.907,2.902,1.393,4.512,1.392h207.376c1.61,0,3.182-0.485,4.512-1.392C435.781,418.84,458.334,299.382,398.566,211.793z
			 M99.535,102.016c-4.467-21.028,0.831-42.949,14.408-59.616c13.513-16.73,33.878-26.438,55.384-26.4h141.328
			c39.389-0.001,71.321,31.929,71.323,71.318c0,4.939-0.513,9.865-1.531,14.698L378.343,112h-35.576l2.904-17.424
			c3.632-21.791-11.089-42.4-32.88-46.032c-2.173-0.362-4.373-0.544-6.576-0.544H173.767c-22.091,0-40,17.908-40,40
			c0,2.203,0.182,4.403,0.544,6.576L137.215,112h-35.576L99.535,102.016z M330.213,88.002c0,1.321-0.109,2.639-0.326,3.942
			l-8.984,53.912c-51.401-23.412-110.423-23.412-161.824,0L150.095,92c-2.209-13.069,6.595-25.455,19.664-27.664
			c1.324-0.224,2.665-0.336,4.008-0.336h132.448C319.47,64.001,330.214,74.747,330.213,88.002z M364.416,444.47
			c-7.17,7.167-14.946,13.702-23.241,19.53h-202.4c-79.532-55.884-98.702-165.659-42.818-245.191
			c5.829-8.295,12.363-16.071,19.53-23.241c1.924-1.904,2.755-4.653,2.208-7.304v0.056L105.007,128h34.872l5.2,31.2
			c0.645,3.854,3.98,6.679,7.888,6.68c1.323-0.001,2.625-0.328,3.792-0.952c51.988-27.872,114.476-27.872,166.464,0
			c3.891,2.093,8.742,0.635,10.835-3.256c0.415-0.772,0.701-1.607,0.845-2.472l5.2-31.2h34.872l-12.688,60.264
			c-0.555,2.646,0.263,5.393,2.176,7.304C433.182,264.313,433.161,375.75,364.416,444.47z"/>
	</g>
</g>
<g>
	<g>
		<path d="M151.991,312h16c0.049-39.744,32.256-71.952,72-72v-16C191.414,224.057,152.048,263.423,151.991,312z"/>
	</g>
</g>
<g>
	<g>
		<path d="M311.991,312c-0.048,39.744-32.256,71.951-72,72v16c48.577-0.057,87.943-39.423,88-88H311.991z"/>
	</g>
</g>
<g>
</g>
<g>
</g>
<g>
</g>
<g>
</g>
<g>
</g>
<g>
</g>
<g>
</g>
<g>
</g>
<g>
</g>
<g>
</g>
<g>
</g>
<g>
</g>
<g>
</g>
<g>
</g>
<g>
</g>
</svg>
